<svg width="185" height="35" viewBox="0 0 185 35" fill="none" xmlns="http://www.w3.org/2000/svg">
<path d="M37.5763 33.0032V13.3938C37.5763 6.31818 31.8401 0.556641 24.7392 0.556641H13.0645C5.98896 0.556641 0.227417 6.29291 0.227417 13.3938C0.227417 20.4693 5.96369 26.2309 13.0645 26.2309H25.6995C25.6995 26.2309 26.7356 26.2814 27.342 26.5088C27.9232 26.7363 28.6055 27.2417 28.6055 27.2417L36.4139 33.6602C36.4139 33.6602 37.1215 34.2667 37.3742 34.1404C37.6269 34.014 37.5763 33.0032 37.5763 33.0032ZM13.4183 15.9966C13.4183 16.8557 12.6602 17.538 11.7505 17.538C10.8408 17.538 10.0827 16.8557 10.0827 15.9966V10.4877C10.0827 9.62854 10.8408 8.94625 11.7505 8.94625C12.6602 8.94625 13.4183 9.62854 13.4183 10.4877V15.9966ZM20.5697 18.5994C20.5697 19.4585 19.8116 20.1408 18.9019 20.1408C17.9922 20.1408 17.2341 19.4585 17.2341 18.5994V7.88491C17.2341 7.02574 17.9922 6.34345 18.9019 6.34345C19.8116 6.34345 20.5697 7.02574 20.5697 7.88491V18.5994ZM27.7211 15.9966C27.7211 16.8557 26.963 17.538 26.0533 17.538C25.1435 17.538 24.3855 16.8557 24.3855 15.9966V10.4877C24.3855 9.62854 25.1435 8.94625 26.0533 8.94625C26.963 8.94625 27.7211 9.62854 27.7211 10.4877V15.9966Z" fill="white"/>
<path d="M44.8531 21.8848C44.6257 22.1122 44.3477 22.2133 44.0192 22.2133C43.6907 22.2133 43.4127 22.1122 43.1853 21.8848C42.9579 21.6574 42.8568 21.3794 42.8568 21.0509V8.5423C42.8568 8.21379 42.9579 7.93582 43.1853 7.70839C43.4127 7.48096 43.6907 7.37988 44.0192 7.37988C44.3477 7.37988 44.6257 7.48096 44.8531 7.70839C45.0805 7.93582 45.2069 8.21379 45.2069 8.5423V15.8958L49.5532 11.5494C49.7806 11.322 50.0586 11.2209 50.3871 11.2209C50.7156 11.2209 50.9935 11.322 51.221 11.5494C51.4484 11.7768 51.5747 12.0548 51.5747 12.3833C51.5747 12.7118 51.4484 12.9898 51.221 13.2172L48.037 16.4012L51.2968 20.2928C51.6 20.6971 51.6505 21.1014 51.4231 21.5563C51.1957 22.0112 50.8672 22.2133 50.4376 22.2133C50.008 22.2133 49.7048 22.0617 49.4774 21.7837L46.3693 17.9932L45.2069 19.1557V21.0256C45.2069 21.4047 45.0805 21.6827 44.8531 21.8848ZM59.3577 22.2891C57.9173 22.2891 56.7297 21.7585 55.7189 20.7224C54.7334 19.6863 54.228 18.4228 54.228 16.9572C54.228 15.4915 54.7334 14.2533 55.7189 13.192C56.7044 12.1306 57.9174 11.6 59.3072 11.6C60.697 11.6 61.9099 12.1306 62.8954 13.192C63.8809 14.2533 64.361 15.5421 64.361 17.0077C64.361 18.4734 63.8557 19.6863 62.8701 20.6466C61.9857 21.7585 60.7981 22.2891 59.3577 22.2891ZM57.3362 14.7334C56.8308 15.3399 56.5781 16.0727 56.5781 16.9319C56.5781 17.8164 56.8308 18.5492 57.3362 19.1809C57.8921 19.7116 58.5491 19.9643 59.3324 19.9643C60.1158 19.9643 60.7728 19.7116 61.3287 19.1809C61.8846 18.5492 62.1626 17.8164 62.1626 16.9319C62.1626 16.0475 61.8846 15.3146 61.3287 14.7334C60.7222 14.2028 60.0652 13.9248 59.3324 13.9248C58.5996 13.9248 57.9426 14.2028 57.3362 14.7334ZM69.137 22.2386L68.9348 22.2133C68.6568 22.1375 68.4547 22.0112 68.2778 21.809C68.1009 21.6068 68.0251 21.3794 68.0251 21.1014V12.7624C68.0251 12.4339 68.1262 12.1559 68.3536 11.9537C68.581 11.7263 68.8337 11.6252 69.1622 11.6252C69.6676 11.6252 69.9961 11.8274 70.173 12.257C70.9058 11.8274 71.6639 11.6252 72.4472 11.6252C73.8118 11.6252 74.9236 12.1054 75.7828 13.0909C76.6167 12.1054 77.678 11.6252 78.992 11.6252C80.306 11.6252 81.3673 12.0548 82.2518 12.9393C83.1109 13.7984 83.5405 14.8598 83.5405 16.098V21.1267C83.5405 21.43 83.4394 21.7079 83.212 21.9354C82.9846 22.1628 82.7319 22.2639 82.4286 22.2639C82.1254 22.2639 81.8474 22.1628 81.62 21.9354C81.3926 21.7079 81.2915 21.4552 81.2915 21.1267V16.0727C81.2915 15.4663 81.0894 14.9356 80.6598 14.5313C80.2302 14.1017 79.7248 13.8995 79.1436 13.8995C78.5624 13.8995 78.057 14.1017 77.6275 14.506C77.1979 14.9103 76.9705 15.4157 76.9452 16.0222V21.1267C76.9452 21.43 76.8441 21.7079 76.6167 21.9354C76.3893 22.1628 76.1366 22.2639 75.8333 22.2639C75.5301 22.2639 75.2521 22.1628 75.0247 21.9354C74.7973 21.7079 74.6709 21.4552 74.6709 21.152V16.0222C74.6457 15.441 74.4435 14.9356 74.0139 14.5313C73.5844 14.1017 73.079 13.8995 72.4978 13.8995C71.9166 13.8995 71.4112 14.1017 70.9816 14.5313C70.552 14.9609 70.3499 15.4663 70.3499 16.0727V21.1014L70.3246 21.2531V21.3289L70.2488 21.4552V21.5563C69.9708 22.0112 69.6171 22.2386 69.137 22.2386ZM89.3272 22.2386L89.125 22.2133C88.8471 22.1375 88.6449 22.0112 88.468 21.809C88.2911 21.6068 88.2153 21.3794 88.2153 21.1014V12.7624C88.2153 12.4339 88.3164 12.1559 88.5438 11.9537C88.7712 11.7263 89.0239 11.6252 89.3524 11.6252C89.8578 11.6252 90.1863 11.8274 90.3632 12.257C91.096 11.8274 91.8541 11.6252 92.6375 11.6252C94.002 11.6252 95.1139 12.1054 95.973 13.0909C96.8069 12.1054 97.8682 11.6252 99.1822 11.6252C100.496 11.6252 101.558 12.0548 102.442 12.9393C103.301 13.7984 103.731 14.8598 103.731 16.098V21.1267C103.731 21.43 103.63 21.7079 103.402 21.9354C103.175 22.1628 102.922 22.2639 102.619 22.2639C102.316 22.2639 102.038 22.1628 101.81 21.9354C101.583 21.7079 101.482 21.4552 101.482 21.1267V16.0727C101.482 15.4663 101.28 14.9356 100.85 14.5313C100.42 14.1017 99.915 13.8995 99.3338 13.8995C98.7526 13.8995 98.2473 14.1017 97.8177 14.506C97.3881 14.9103 97.1607 15.4157 97.1354 16.0222V21.1267C97.1354 21.43 97.0343 21.7079 96.8069 21.9354C96.5795 22.1628 96.3268 22.2639 96.0236 22.2639C95.7203 22.2639 95.4424 22.1628 95.2149 21.9354C94.9875 21.7079 94.8612 21.4552 94.8612 21.152V16.0222C94.8359 15.441 94.6337 14.9356 94.2042 14.5313C93.7746 14.1017 93.2692 13.8995 92.688 13.8995C92.1068 13.8995 91.6014 14.1017 91.1718 14.5313C90.7423 14.9609 90.5401 15.4663 90.5401 16.0727V21.1014L90.5148 21.2531V21.3289L90.439 21.4552V21.5563C90.1611 22.0112 89.8073 22.2386 89.3272 22.2386ZM117.048 17.8164C117.048 19.0293 116.593 20.0654 115.708 20.9246C114.824 21.7837 113.788 22.2386 112.575 22.2386C111.362 22.2386 110.326 21.809 109.467 20.9498C108.608 20.0906 108.153 19.0546 108.153 17.8416V12.7371C108.153 12.4339 108.254 12.1812 108.481 11.9537C108.709 11.7263 108.961 11.6252 109.265 11.6252C109.568 11.6252 109.846 11.7263 110.073 11.9537C110.301 12.1812 110.402 12.4339 110.402 12.7371V17.8164C110.402 18.4228 110.604 18.9282 111.034 19.3578C111.463 19.7874 111.969 19.9896 112.575 19.9896C113.181 19.9896 113.712 19.7874 114.142 19.3578C114.571 18.9282 114.799 18.4228 114.799 17.8164V12.7371C114.799 12.4339 114.9 12.1812 115.127 11.9537C115.329 11.7263 115.607 11.6252 115.911 11.6252C116.214 11.6252 116.492 11.7263 116.719 11.9537C116.947 12.1812 117.073 12.4339 117.073 12.7371V17.8164H117.048ZM123.668 21.1014C123.668 21.4047 123.542 21.6827 123.314 21.9101C123.062 22.1375 122.809 22.2386 122.506 22.2386C122.203 22.2386 121.95 22.1375 121.723 21.9101C121.495 21.6827 121.394 21.43 121.394 21.1014V12.7371C121.394 12.4339 121.495 12.1559 121.723 11.9285C121.95 11.701 122.203 11.6 122.531 11.6C123.011 11.6 123.365 11.8274 123.567 12.257C124.249 11.8274 125.008 11.6 125.816 11.6C127.054 11.6 128.09 12.0295 128.95 12.914C129.809 13.7732 130.238 14.8092 130.238 16.0222V21.1014C130.238 21.4047 130.137 21.6827 129.91 21.9101C129.708 22.1375 129.43 22.2386 129.126 22.2386C128.823 22.2386 128.545 22.1375 128.343 21.9101C128.116 21.6827 128.015 21.43 128.015 21.1014V16.0475C128.015 15.441 127.787 14.9356 127.358 14.5313C126.928 14.1017 126.397 13.8995 125.816 13.8995C125.21 13.8995 124.704 14.1017 124.3 14.5313C123.896 14.9609 123.694 15.4663 123.694 16.0475V21.1014H123.668ZM136.707 8.51703V8.97189C136.707 9.3004 136.606 9.57836 136.379 9.80579C136.151 10.0332 135.899 10.1343 135.57 10.1343C135.242 10.1343 134.989 10.0332 134.761 9.80579C134.534 9.57836 134.433 9.3004 134.433 8.97189V8.51703C134.433 8.21379 134.534 7.93582 134.761 7.70839C134.989 7.48096 135.267 7.37988 135.57 7.37988C135.899 7.37988 136.151 7.48096 136.379 7.70839C136.606 7.93582 136.707 8.18852 136.707 8.51703ZM134.761 11.979C134.989 11.7516 135.242 11.6505 135.57 11.6505C135.899 11.6505 136.177 11.7516 136.379 11.979C136.606 12.2064 136.707 12.4844 136.707 12.8129V21.1014C136.707 21.43 136.606 21.7079 136.379 21.9101C136.151 22.1375 135.899 22.2386 135.57 22.2386C135.242 22.2386 134.989 22.1375 134.761 21.9101C134.534 21.6827 134.433 21.4047 134.433 21.1014V12.8129C134.408 12.4844 134.534 12.1812 134.761 11.979ZM141.205 20.6719C140.144 19.6358 139.613 18.3723 139.613 16.9319C139.613 15.4663 140.144 14.228 141.205 13.192C142.266 12.1559 143.53 11.6252 144.996 11.6252C146.234 11.6252 147.346 12.0043 148.382 12.7876C148.634 12.9645 148.761 13.2172 148.811 13.5457C148.862 13.8742 148.786 14.1522 148.584 14.3796C148.382 14.6323 148.154 14.7587 147.851 14.8092C147.548 14.8598 147.27 14.784 147.042 14.5818C146.411 14.1269 145.703 13.8995 144.92 13.8995C144.136 13.8995 143.429 14.2028 142.797 14.8092C142.165 15.4157 141.862 16.1233 141.862 16.9572C141.862 17.7658 142.165 18.4986 142.797 19.0799C143.404 19.6863 144.111 19.9896 144.92 19.9896C145.703 19.9896 146.411 19.7621 147.042 19.3073C147.27 19.1304 147.548 19.0546 147.851 19.1051C148.154 19.1557 148.407 19.282 148.609 19.5347C148.811 19.7874 148.862 20.0401 148.837 20.3433C148.786 20.6466 148.66 20.8993 148.407 21.1267C147.371 21.8848 146.234 22.2639 145.021 22.2639C143.53 22.2386 142.266 21.7079 141.205 20.6719ZM152.804 20.6971C151.844 19.6611 151.338 18.4228 151.338 16.9572C151.338 15.4915 151.818 14.228 152.804 13.192C153.764 12.1559 154.977 11.6252 156.392 11.6252C157.403 11.6252 158.338 11.9285 159.222 12.5602C159.298 12.2822 159.424 12.0801 159.627 11.9032C159.829 11.7263 160.056 11.6505 160.359 11.6505C160.637 11.6505 160.915 11.7516 161.117 11.979C161.345 12.2064 161.446 12.4844 161.446 12.7876V21.1267C161.446 21.43 161.345 21.7079 161.117 21.9354C160.89 22.1628 160.637 22.2639 160.359 22.2639C160.081 22.2639 159.829 22.1881 159.627 22.0112C159.424 21.8343 159.298 21.6321 159.222 21.3541C158.363 21.9354 157.428 22.2386 156.417 22.2386C154.977 22.2386 153.789 21.7079 152.804 20.6971ZM153.638 16.9319C153.638 17.7911 153.89 18.4986 154.421 19.0799C154.926 19.6611 155.609 19.939 156.417 19.939C157.226 19.939 157.908 19.6611 158.439 19.0799C158.97 18.4986 159.248 17.7911 159.248 16.9319C159.248 16.0727 158.97 15.3652 158.439 14.7587C157.908 14.1522 157.226 13.8742 156.443 13.8742C155.634 13.8742 154.977 14.1775 154.446 14.7587C153.89 15.3652 153.638 16.0727 153.638 16.9319ZM169.204 11.6252C169.532 11.6252 169.81 11.7263 170.038 11.9537C170.265 12.1812 170.391 12.4591 170.391 12.7624C170.391 13.0909 170.265 13.3689 170.038 13.5963C169.81 13.8237 169.532 13.9501 169.204 13.9501H168.673V19.8632C169.001 19.8632 169.279 19.9896 169.507 20.217C169.734 20.4444 169.835 20.7224 169.835 21.0509C169.835 21.3794 169.734 21.6574 169.507 21.8848C169.279 22.1122 169.001 22.2133 168.673 22.2133C168.016 22.2133 167.46 21.9859 167.005 21.531C166.55 21.0762 166.323 20.5202 166.323 19.8632V13.9501H165.716C165.388 13.9501 165.11 13.849 164.883 13.6216C164.655 13.3941 164.554 13.1162 164.554 12.7876C164.554 12.4591 164.655 12.1812 164.883 11.9537C165.11 11.7263 165.388 11.6252 165.716 11.6252H166.323V8.5423C166.323 8.21379 166.449 7.93582 166.677 7.70839C166.904 7.48096 167.182 7.37988 167.511 7.37988C167.839 7.37988 168.117 7.48096 168.344 7.70839C168.572 7.93582 168.673 8.21379 168.673 8.5423V11.6252H169.204ZM183.658 16.6539C183.658 16.9572 183.557 17.2099 183.354 17.412C183.152 17.6142 182.874 17.69 182.546 17.69H175.799C175.925 18.2965 176.178 18.7766 176.532 19.0799C176.987 19.6105 177.644 19.9138 178.528 20.0148C179.387 20.1159 180.145 19.939 180.777 19.4842C180.979 19.2567 181.282 19.1557 181.636 19.1557C181.99 19.1557 182.243 19.2567 182.369 19.4336C182.773 19.8632 182.773 20.3433 182.369 20.8235C181.358 21.7585 180.095 22.2133 178.629 22.2133C177.138 22.2133 175.9 21.6827 174.915 20.6466C173.929 19.6105 173.398 18.3723 173.398 16.9066C173.424 15.441 173.929 14.2028 174.915 13.1667C175.9 12.1306 177.113 11.6 178.528 11.6C179.943 11.6 181.131 12.0548 182.116 12.9898C183.077 13.9248 183.607 15.0872 183.708 16.5276V16.6539H183.658ZM178.553 13.6468C177.745 13.6974 177.062 13.9501 176.582 14.4049C176.077 14.8598 175.799 15.3652 175.698 15.8958H181.687C181.56 15.3904 181.207 14.9103 180.651 14.4555C180.095 13.9753 179.387 13.7226 178.553 13.6468Z" fill="white"/>
</svg>
