<svg width="140" height="141" viewBox="0 0 140 141" fill="none" xmlns="http://www.w3.org/2000/svg">
<g clip-path="url(#clip0_3368_1801)">
<g clip-path="url(#clip1_3368_1801)">
<path d="M57.0555 30.0107C53.1043 30.0107 51.6824 32.0643 51.6824 33.642V34.9053H51.841C52.4727 34.2736 53.8945 33.1689 56.5797 33.1689C58.7918 33.1689 59.7406 33.8006 59.7406 35.8541V36.0127H58.4773C52.9484 36.0127 51.0508 38.0662 51.0508 40.7514C51.0508 43.4365 53.4215 45.49 57.0664 45.49H57.6953C61.0121 45.49 63.3801 43.2779 63.3801 40.1197V36.6443C63.3801 31.5885 60.3723 30.0107 57.0637 30.0107M59.7488 40.1279C59.7488 41.7084 58.9586 42.4977 57.3781 42.4959C55.8004 42.4959 54.8516 41.8643 54.8516 40.601C54.8516 39.3377 55.6418 38.7061 58.4855 38.7061H59.7488V40.1279Z" fill="black"/>
<path d="M82.0121 30.0107C80.2758 30.0107 78.5367 30.9568 77.7492 32.3787C76.6555 30.9568 75.0613 30.0107 73.1664 30.0107C68.5863 30.0107 66.5328 32.6959 66.5328 36.8029V42.6463C66.5328 44.3853 67.6266 45.3314 69.218 45.3314H70.1668V36.4857C70.1668 34.4322 71.2606 33.3275 72.6934 33.3275C74.2739 33.3275 75.5371 34.4213 75.5371 36.8029V42.4877C75.5371 44.2268 76.6309 45.1756 78.2223 45.1756H79.1684V36.3272C79.1684 34.2736 80.2758 33.1689 81.6977 33.1689C83.2754 33.1689 84.3828 34.2627 84.3828 36.6443V42.3318C84.3828 44.0682 85.1731 45.017 87.2266 45.017H88.1727V36.0127C88.1727 32.0643 85.3317 30.0107 82.0121 30.0107Z" fill="black"/>
<path d="M97.3437 30.1558C93.3953 30.1558 91.8148 32.9995 91.8148 36.0019V42.794C91.8148 44.3745 92.9086 45.1647 94.5 45.1647H95.6074V36.6335C95.6074 34.4214 96.5535 33.4753 98.134 33.4753C98.8993 33.4455 99.6599 33.6082 100.346 33.9483H100.502V32.5265C100.502 31.4327 99.7144 30.1558 97.3437 30.1558Z" fill="black"/>
<path d="M115.186 35.6957C115.186 32.0644 112.342 29.8523 109.184 29.8523C104.918 29.8523 101.916 33.0105 101.916 37.9078C101.916 42.4878 105.55 45.3316 109.342 45.3316C113.444 45.3316 114.713 43.9097 114.713 42.0148V40.921H114.554C113.291 42.0148 111.546 42.3429 109.974 42.3429C107.762 42.3429 106.023 41.0796 105.708 39.3351H108.076C113.132 39.3351 115.186 38.5449 115.186 35.7011M105.708 36.8085V36.3328C105.867 34.5964 106.972 33.1746 108.866 33.1746C110.605 33.1746 111.71 33.9648 111.71 35.3867C111.71 36.4804 110.92 36.8085 107.445 36.8085H105.708Z" fill="black"/>
<path d="M123.867 25.1135C119.446 25.1135 118.024 28.4303 118.024 30.6424V43.1221C118.036 43.7048 118.273 44.2603 118.685 44.6722C119.097 45.084 119.653 45.3203 120.236 45.3315H121.814V35.3811H123.394C124.657 35.3811 126.079 34.5909 126.079 33.3276V32.3788H121.814V31.1155C121.814 29.062 122.921 28.5889 124.499 28.5889C125.247 28.5924 125.991 28.6982 126.711 28.9034H126.875V27.6401C126.716 25.9038 125.453 25.1135 123.867 25.1135Z" fill="black"/>
<path d="M56.4239 59.5503C55.6336 59.5503 55.3301 59.0746 55.3301 58.1285V54.8089C55.3301 53.5456 54.6985 52.914 53.9082 52.914C53.4352 52.914 52.6449 53.3898 52.6449 54.8089V59.3917H52.0133C51.2231 59.3917 50.9196 58.9187 50.9196 57.9699V48.6484H51.3926C51.5625 48.6333 51.7337 48.6556 51.894 48.714C52.0544 48.7723 52.1999 48.8651 52.3204 48.9859C52.4409 49.1066 52.5334 49.2524 52.5914 49.4128C52.6494 49.5733 52.6714 49.7445 52.6559 49.9144V52.2824C52.9731 51.8093 53.4461 51.1886 54.2364 51.1886C55.9727 51.1886 57.0801 52.4519 57.0801 54.664V59.4027H56.4485L56.4239 59.5503Z" fill="#D13444"/>
<path d="M61.1625 56.3894H60.0551C60.127 56.8376 60.3589 57.2447 60.7077 57.5353C61.0566 57.8258 61.4989 57.9802 61.9528 57.9698C62.7403 57.9698 63.5305 57.8112 64.0063 57.1796V57.8112C64.0063 58.9187 63.3719 59.7062 61.477 59.7062C59.7407 59.7062 58.0016 58.1284 58.0016 55.6046C58.0016 52.9194 59.4235 51.1831 61.3184 51.1831C62.7403 51.1831 64.1621 52.4464 64.1621 54.3413C64.4793 55.9218 63.5305 56.3948 61.1543 56.3948M61.4688 53.078C60.6785 53.078 60.0469 53.8683 60.0469 54.8144V55.1315H60.8371C62.4176 55.1315 62.8907 54.973 62.8907 54.3413C62.8907 53.3952 62.259 53.078 61.4688 53.078Z" fill="#D13444"/>
<path d="M68.5864 59.7061H68.2692C66.6914 59.7061 65.4254 58.6124 65.4254 57.1795C65.4254 55.7467 66.3742 54.653 68.9008 54.653H69.5352V54.4917C69.5352 53.3979 69.0594 53.0698 68.1133 53.0698C66.8473 53.0698 66.2156 53.5428 65.9012 54.0186V53.3979C65.9012 52.4491 66.5328 51.5002 68.4278 51.5002C70.0082 51.5002 71.4356 52.2905 71.4356 55.1342V57.0292C71.277 58.6096 70.1723 59.7143 68.5918 59.7143M69.5407 56.0831H68.9063C67.643 56.0831 67.1699 56.3975 67.1699 57.0292C67.1699 57.6608 67.643 57.978 68.4332 57.978C69.2235 57.978 69.5407 57.5049 69.5407 56.7147V56.0831Z" fill="#D13444"/>
<path d="M74.9055 59.7063C73.4836 59.7063 72.6934 58.7602 72.6934 57.1797V48.807H73.1664C73.333 48.8045 73.4984 48.8354 73.6529 48.8979C73.8073 48.9605 73.9476 49.0535 74.0654 49.1713C74.1833 49.2891 74.2762 49.4294 74.3388 49.5838C74.4014 49.7383 74.4323 49.9037 74.4297 50.0703V56.8625C74.4297 57.6527 74.7469 57.9699 75.5371 57.9699H76.0156V58.443C76.0156 59.2332 75.7012 59.7063 74.9219 59.7063" fill="#D13444"/>
<path d="M77.4321 50.2288C77.5063 50.0839 77.6197 49.9627 77.7594 49.8791C77.8991 49.7954 78.0595 49.7527 78.2223 49.7558H78.6953V51.4839H81.066V52.2741C81.066 52.7472 80.7489 53.223 79.9586 53.223H78.5367V56.3812C78.5367 57.4886 79.0125 57.803 79.6305 57.803C80.0722 57.8135 80.5085 57.7049 80.8938 57.4886V58.2761C80.8938 59.0663 80.4207 59.5421 79.3133 59.5421C77.577 59.5421 76.7867 58.4347 76.7867 56.5343V51.6507C76.7867 51.019 76.9453 50.7019 77.4184 50.2288" fill="#D13444"/>
<path d="M87.6996 59.5503C86.9094 59.5503 86.6059 59.0746 86.6059 58.1285V54.8089C86.6059 53.5457 85.9742 52.914 85.184 52.914C84.7082 52.914 83.9207 53.3898 83.9207 54.8089V59.3918H83.2863C82.4988 59.3918 82.1926 58.9187 82.1926 57.9699V48.6484H82.6656C82.8358 48.6328 83.0072 48.6549 83.1679 48.713C83.3286 48.7712 83.4745 48.8639 83.5953 48.9847C83.7161 49.1055 83.8089 49.2514 83.867 49.4121C83.9251 49.5728 83.9472 49.7443 83.9316 49.9144V52.2824C84.2461 51.8093 84.7191 51.1886 85.5094 51.1886C87.2484 51.1886 88.3531 52.4519 88.3531 54.664V59.4027H87.7215L87.6996 59.5503Z" fill="#D13444"/>
<path d="M95.5992 59.7061H95.282C93.7016 59.7061 92.4383 58.6124 92.4383 57.1795C92.4383 55.7467 93.3871 54.653 95.9137 54.653H96.5453V54.4917C96.5453 53.3979 96.0723 53.0698 95.1235 53.0698C93.8602 53.0698 93.2285 53.5428 92.9113 54.0186V53.3979C92.9113 52.4491 93.5457 51.5002 95.4406 51.5002C97.0184 51.5002 98.4485 52.2905 98.4485 55.1342V57.0292C98.134 58.6096 97.0266 59.7143 95.6074 59.7143M96.5535 56.0831H95.9219C94.6586 56.0831 94.1856 56.3975 94.1856 57.0292C94.1856 57.6608 94.6586 57.978 95.4488 57.978C96.2391 57.978 96.5426 57.5049 96.5426 56.7147L96.5535 56.0831Z" fill="#D13444"/>
<path d="M103.496 50.7018C103.197 50.5745 102.871 50.521 102.547 50.546C101.916 50.546 101.284 50.8604 101.284 51.9678V52.7553H103.338V53.0725C103.338 53.8628 102.706 54.1663 102.074 54.1663H101.284V59.5503H100.652C100.344 59.5172 100.059 59.3681 99.8557 59.133C99.6526 58.898 99.5465 58.5946 99.5586 58.2842V51.4838C99.5586 50.3901 100.19 48.476 102.244 48.476C102.414 48.4605 102.585 48.4825 102.745 48.5405C102.905 48.5985 103.051 48.691 103.172 48.8116C103.292 48.9321 103.385 49.0777 103.443 49.2381C103.501 49.3984 103.523 49.5695 103.507 49.7393V50.6854L103.496 50.7018Z" fill="#D13444"/>
<path d="M108.235 53.5457C107.92 53.3898 107.762 53.2313 107.289 53.2313C106.498 53.2313 106.023 53.7043 106.023 54.9676V59.5504H105.547C105.377 59.5655 105.206 59.5431 105.045 59.4848C104.885 59.4265 104.74 59.3337 104.619 59.2129C104.499 59.0921 104.406 58.9464 104.348 58.7859C104.29 58.6255 104.268 58.4543 104.284 58.2844V54.6531C104.284 53.0727 105.074 51.4922 106.81 51.4922C107.918 51.4922 108.232 52.1238 108.232 52.7555V53.5457H108.235Z" fill="#D13444"/>
<path d="M110.288 51.019C110.062 51.0537 109.83 51.0181 109.625 50.917C109.42 50.8159 109.25 50.6542 109.14 50.4538C109.029 50.2533 108.983 50.0238 109.007 49.7961C109.031 49.5684 109.124 49.3536 109.274 49.1807C109.424 49.0077 109.624 48.885 109.846 48.8291C110.068 48.7731 110.301 48.7867 110.515 48.8679C110.729 48.949 110.913 49.094 111.042 49.2831C111.172 49.4721 111.239 49.6963 111.237 49.9252C111.237 50.3983 110.761 51.019 110.288 51.019ZM111.562 59.7061C110.299 59.7061 109.509 58.76 109.509 57.1795V51.8092H109.985C110.772 51.8092 111.248 52.2823 111.248 53.2311V57.0209C111.248 57.8112 111.562 58.1283 112.342 58.1283H112.656V58.5932C112.498 59.2248 112.18 59.6869 111.549 59.6869" fill="#D13444"/>
<path d="M118.82 54.1772C118.661 53.7042 117.871 53.3897 116.922 53.3897C115.973 53.3897 115.027 54.3358 115.027 55.4432C115.027 56.8624 115.817 57.9698 116.922 57.9698C117.871 57.9698 118.502 57.6526 118.82 57.1795V58.1284C118.82 59.0745 118.029 59.8647 116.766 59.8647C114.868 59.8647 113.291 58.1284 113.291 55.9163C113.291 53.5456 114.713 51.6506 117.08 51.6506C118.188 51.6506 118.975 52.4409 118.975 53.3897L118.82 54.1772Z" fill="#D13444"/>
<path d="M122.927 59.7061H122.451C120.873 59.7061 119.61 58.6124 119.61 57.1795C119.61 55.7467 120.556 54.653 123.085 54.653H123.717V54.4917C123.717 53.3979 123.241 53.0698 122.295 53.0698C121.032 53.0698 120.397 53.5428 120.083 54.0186V53.3979C120.083 52.4491 120.714 51.5002 122.609 51.5002C124.19 51.5002 125.617 52.2905 125.617 55.1342V57.0292C125.459 58.6096 124.354 59.7143 122.932 59.7143M123.867 56.0749H123.236C121.972 56.0749 121.499 56.3893 121.499 57.0209C121.499 57.6526 121.972 57.9698 122.762 57.9698C123.553 57.9698 123.856 57.4967 123.856 56.7065L123.867 56.0749Z" fill="#D13444"/>
<path fill-rule="evenodd" clip-rule="evenodd" d="M46.9438 23.8502C44.5758 24.4819 43.936 22.7428 42.2051 22.1112C40.7832 21.6381 38.7297 21.9526 38.2567 20.5307C38.0981 19.7432 38.5739 18.7944 38.2567 18.1627C37.9422 17.3725 36.0446 17.5311 34.9399 17.6897C33.8576 17.8199 32.7958 18.0844 31.7789 18.4772C29.884 19.2674 27.9891 20.3748 25.9356 20.5307C25.1453 20.5307 24.3551 20.3748 23.8821 20.5307C22.7883 20.8479 22.1457 22.2698 21.67 23.5385C21.0383 25.119 21.0383 27.1725 19.6164 27.9627C19.302 28.1186 18.6703 28.2772 18.3532 28.4358C17.7554 28.8244 17.2221 29.3042 16.7727 29.8576C16.2996 30.6479 15.8266 31.9112 15.8266 32.8655C15.8266 33.6557 16.2996 34.1315 16.2996 34.919C16.4582 36.3408 15.668 37.6069 15.8266 38.8701C16.141 39.9639 18.1946 41.3967 18.9848 42.1869C20.4067 43.6088 21.9926 44.399 24.8309 44.2405C26.0942 44.0819 27.1989 43.6088 28.3063 43.1467C29.4137 42.6846 30.8328 42.053 32.0961 42.3565C32.8864 42.5123 33.3594 42.9881 33.8325 43.4502C34.3683 43.9615 35.0191 44.3366 35.7301 44.544C36.5203 44.7026 37.3078 44.0709 38.2567 44.2295C39.9957 44.3881 40.9418 46.4416 41.1004 48.3311C41.259 50.2205 40.9418 51.9651 41.4149 53.7014C42.2051 56.5451 44.4227 58.2815 44.4227 61.2838C44.4227 63.4959 42.8422 64.442 42.8422 66.8127C42.8422 67.4444 43.1594 68.076 43.318 68.8662C43.791 70.7612 43.6325 73.2905 44.1082 75.1854C44.4553 76.4232 44.8753 77.6394 45.366 78.8276C46.1563 80.7225 47.1024 82.776 49.6289 82.776C52.6367 82.776 54.3703 80.7225 55.6446 78.9834C56.7383 77.5616 57.3809 75.9756 58.4883 74.8819C59.1199 74.2502 60.066 73.7881 60.6977 73.1455C60.3832 72.0381 59.7516 70.7748 60.2246 69.5115C61.0149 67.2994 64.4903 67.2994 65.595 65.41C66.0707 64.4612 66.0707 63.5151 66.2266 62.0932C66.2266 61.9346 66.2266 62.0932 66.3852 62.0932C66.2266 63.5151 66.3852 64.7783 65.7535 65.7272C65.2805 66.6733 64.1731 67.1491 63.227 67.7807C62.2809 68.4123 61.1735 69.044 61.0149 69.9901C60.8563 70.6217 61.0149 71.4119 61.0149 71.8877C61.0149 72.3635 61.4879 73.151 61.3293 73.6241C61.1735 73.9412 60.3832 74.2557 59.9102 74.5729C58.8028 75.519 58.1711 76.785 57.3809 78.0483C57.0664 78.6799 56.5907 79.3115 56.2871 79.9432C55.9836 80.5748 55.6555 81.3651 55.0239 81.9967C54.2336 82.7869 53.1262 83.26 51.5485 83.733C49.8094 84.2088 46.9657 84.3647 45.861 83.4186C44.7563 82.4725 43.966 79.9432 43.3344 78.2041C43.0172 77.258 42.7009 76.311 42.3856 75.3631C42.0711 74.2694 41.9125 73.3096 41.5953 72.3553C41.2809 71.5651 40.6492 70.7748 40.1735 69.8287C39.7004 69.0385 39.0797 68.0897 39.0797 67.1436C39.0797 65.0901 41.1332 64.1358 41.2918 62.2463C41.4477 60.5072 40.0285 58.6123 39.2383 57.5076C38.7625 56.2416 37.1848 54.6639 37.0262 53.0834C36.8676 51.3471 38.7625 49.2936 37.0262 48.3448C36.3946 48.0276 35.2871 48.0276 34.341 47.7131C33.395 47.3987 33.0778 46.4498 32.2875 46.1326C30.3926 45.6596 29.1266 47.3959 27.2317 47.8717C26.2856 48.0276 25.4953 47.3959 24.3879 47.3959C23.1246 47.3959 22.1785 47.8717 21.0711 47.7131C19.8078 47.5545 18.859 46.6194 18.0633 45.6596C16.7973 44.2377 15.6926 43.133 14.5879 41.558C14.1121 40.9264 13.3219 40.1362 13.166 39.1873C13.0075 37.7655 14.1121 37.1338 14.2598 35.8705C14.4184 34.7768 13.9426 33.817 14.1012 32.7123C14.0761 32.3879 14.1306 32.0622 14.2598 31.7635C14.577 30.0272 15.8403 27.8151 17.1035 27.0248C18.0524 26.3932 19.4715 26.2346 20.1114 25.1299C20.5844 24.3397 20.743 23.0764 21.2051 22.2862C21.5769 21.7217 21.9997 21.1927 22.4684 20.7057C22.4498 20.3583 22.5471 20.0145 22.745 19.7285C22.943 19.4424 23.2304 19.2302 23.5621 19.1252C24.8282 18.8108 26.25 19.4424 27.6637 19.2838C29.0774 19.1252 30.3516 18.4936 31.6149 18.0205C33.0367 17.5475 34.4586 16.9268 35.7164 16.7573C36.9742 16.5877 38.5602 16.7573 38.8746 17.5475C39.1918 18.4936 38.5602 19.4424 38.716 20.3912C39.0332 21.3373 40.1379 21.0229 41.5598 21.3373C43.4547 21.969 44.4035 24.0225 46.9301 23.8666" fill="#D13444"/>
<path d="M67.3231 69.6592C66.6914 69.5006 66.0598 70.1323 65.7426 70.6053C65.5923 71.0057 65.3791 71.3795 65.1109 71.7127C64.9524 71.8713 64.4793 71.7127 64.1621 71.8713C62.4258 72.0272 64.3207 73.6076 63.0684 74.0807C62.9098 74.0807 62.9098 74.3979 62.9098 74.3979C62.9098 75.1881 62.7512 75.9783 63.227 76.7686C63.8586 77.5561 64.9633 78.0319 65.7535 77.4002C66.3852 76.9244 66.3852 75.5026 66.5438 74.8709C66.5438 72.3444 67.6375 71.8631 68.1242 70.6053C68.1242 70.4494 67.9656 70.9225 67.807 71.0811C66.3852 73.2932 66.0707 74.2393 66.2266 75.9783C66.3852 77.5561 63.2188 78.1877 63.5414 74.7151C63.5414 74.3979 64.0172 74.5565 64.0172 73.9248C64.1731 73.2932 63.7 72.976 64.3316 72.503C64.8047 72.3444 65.2805 72.3444 65.9121 71.7127C66.3852 71.0811 66.5438 69.9737 67.6484 70.1323C67.9656 69.8178 67.4899 69.6592 67.334 69.6592" fill="#D13444"/>
</g>
</g>
<defs>
<clipPath id="clip0_3368_1801">
<rect y="0.390137" width="140" height="140" rx="70" fill="white"/>
</clipPath>
<clipPath id="clip1_3368_1801">
<rect width="140" height="140" fill="white" transform="translate(0 -19.6099)"/>
</clipPath>
</defs>
</svg>
