<svg width="43" height="12" viewBox="0 0 43 12" fill="none" xmlns="http://www.w3.org/2000/svg">
<path fill-rule="evenodd" clip-rule="evenodd" d="M0.689819 5.95697C0.689819 9.24482 3.21321 11.3075 6.31293 11.3075C8.27557 11.3075 9.78649 10.5165 10.908 9.29135V5.24356H5.89237V7.46132H8.27557V8.32981C7.85501 8.671 7.12291 8.95016 6.31293 8.95016C4.6151 8.95016 3.4157 7.64742 3.4157 5.95697C3.4157 4.26651 4.6151 2.96378 6.31293 2.96378C7.29425 2.96378 8.08866 3.50658 8.50922 4.18897L10.7522 3.0103C9.98899 1.72308 8.5871 0.606445 6.31293 0.606445C3.21321 0.606445 0.689819 2.66911 0.689819 5.95697ZM12.4812 11.1214V0.777042H16.8426C20.1137 0.777042 22.4658 2.73115 22.4658 5.94146C22.4658 9.15177 20.1137 11.1214 16.8582 11.1214H12.4812ZM15.1604 8.79507H16.8426C18.6651 8.79507 19.7243 7.47682 19.7243 5.94146C19.7243 4.34406 18.7585 3.10336 16.8582 3.10336H15.1604V8.79507ZM23.8053 11.1214V0.777042H29.0079C31.3444 0.777042 32.6216 2.34343 32.6216 4.21998C32.6216 6.08104 31.3444 7.6164 29.0079 7.6164H26.4845V11.1214H23.8053ZM29.8957 4.20448C29.8957 3.49107 29.3661 3.02581 28.6496 3.02581H26.4845V5.35212H28.6496C29.3661 5.35212 29.8957 4.90237 29.8957 4.20448ZM39.6155 11.1214L37.8709 7.6164H36.5002V11.1214H33.821V0.777042H39.0236C41.3289 0.777042 42.6373 2.2969 42.6373 4.21998C42.6373 6.019 41.5314 6.98054 40.5656 7.32174L42.684 11.1214H39.6155ZM39.9114 4.18897C39.9114 3.47557 39.3195 3.02581 38.6186 3.02581H36.5002V5.35212H38.6186C39.3195 5.35212 39.9114 4.90237 39.9114 4.18897Z" fill="white"/>
</svg>
