<svg width="34" height="34" viewBox="0 0 34 34" fill="none" xmlns="http://www.w3.org/2000/svg">
<path d="M16.8749 0.785156L17.4039 2.49421H19.1163L17.7311 3.55042L18.2601 5.25947L16.8749 4.20258L15.4899 5.25947L16.019 3.55042L14.6333 2.49421H16.3457L16.8749 0.785156Z" fill="#F8D12E"/>
<path d="M16.8749 28.9092L17.4039 30.6187H19.1163L17.7311 31.6748L18.2601 33.3835L16.8749 32.3275L15.4899 33.3835L16.019 31.6748L14.6333 30.6187H16.3457L16.8749 28.9092Z" fill="#F8D12E"/>
<path d="M23.9196 3.3418L24.4485 5.05083H26.1611L24.7756 6.10746L25.3048 7.81611L23.9196 6.75947L22.5342 7.81611L23.0633 6.10746L21.6781 5.05083H23.3907L23.9196 3.3418Z" fill="#F8D12E"/>
<path d="M29.615 21.7412L30.1439 23.4508H31.8563L30.4709 24.507L31.0004 26.2155L29.615 25.1598L28.2296 26.2155L28.7588 24.507L27.3733 23.4508H29.0858L29.615 21.7412Z" fill="#F8D12E"/>
<path d="M30.9644 14.8477L31.4933 16.5566H33.2058L31.8204 17.6127L32.3495 19.322L30.9644 18.2662L29.5791 19.322L30.1085 17.6127L28.7228 16.5566H30.435L30.9644 14.8477Z" fill="#F8D12E"/>
<path d="M2.78554 14.8477L3.31443 16.5566H5.02674L3.64124 17.6127L4.17077 19.322L2.78554 18.2662L1.39995 19.322L1.9292 17.6127L0.543701 16.5566H2.25629L2.78554 14.8477Z" fill="#F8D12E"/>
<path d="M3.95205 21.7412L4.48093 23.4508H6.19325L4.80811 24.507L5.33691 26.2155L3.95205 25.1598L2.56655 26.2155L3.0957 24.507L1.71021 23.4508H3.42289L3.95205 21.7412Z" fill="#F8D12E"/>
<path d="M29.615 7.77051L30.1439 9.48012H31.8563L30.4709 10.5363L31.0004 12.2448L29.615 11.1891L28.2296 12.2448L28.7588 10.5363L27.3733 9.48012H29.0858L29.615 7.77051Z" fill="#F8D12E"/>
<path d="M4.5353 7.77051L5.06418 9.48012H6.7765L5.39137 10.5363L5.92016 12.2448L4.5353 11.1891L3.1498 12.2448L3.67896 10.5363L2.29346 9.48012H4.00614L4.5353 7.77051Z" fill="#F8D12E"/>
<path d="M25.2005 27.6309L25.7294 29.3397H27.4419L26.0562 30.3964L26.5856 32.1052L25.2005 31.0491L23.8148 32.1052L24.3443 30.3964L22.9589 29.3397H24.6714L25.2005 27.6309Z" fill="#F8D12E"/>
<path d="M9.83007 3.3418L10.3589 5.05083H12.0715L10.686 6.10746L11.2156 7.81611L9.83007 6.75947L8.44484 7.81611L8.974 6.10746L7.5885 5.05083H9.30082L9.83007 3.3418Z" fill="#F8D12E"/>
<path d="M8.549 27.6309L9.07811 29.3405H10.7907L9.40527 30.3963L9.93439 32.1052L8.549 31.0497L7.16389 32.1052L7.693 30.3963L6.30762 29.3405H8.0198L8.549 27.6309Z" fill="#F8D12E"/>
</svg>
