<svg width="101" height="101" viewBox="0 0 101 101" fill="none" xmlns="http://www.w3.org/2000/svg">
<g clip-path="url(#clip0_3368_1881)">
<path d="M20.3658 67.238C11.4401 67.3356 3.23694 59.777 3.70569 49.6794C4.07678 41.6911 10.9518 33.4489 21.2643 33.9372C29.6041 34.3278 37.1432 41.1637 37.0651 50.7536C37.0065 59.8552 29.6237 67.2575 20.3658 67.238ZM26.5573 54.6403C26.5573 53.2731 26.5377 51.9841 26.5573 50.695C26.5768 49.7575 26.8893 48.9372 27.6315 48.3122C28.4518 47.6286 29.7018 47.8825 29.8971 48.7809C29.9752 49.1716 30.0143 49.5817 30.0143 49.9723C30.0338 51.2223 30.0338 52.4919 30.0143 53.7419C30.0143 54.2497 30.2487 54.6012 30.7174 54.6403C31.4791 54.7184 32.2408 54.6598 33.0416 54.6598C33.0416 54.3473 33.0416 53.3317 33.0416 53.0778C32.0065 53.0192 32.0065 53.0192 32.0065 52.0622C32.0065 51.0661 32.0651 50.0505 31.9869 49.0544C31.9283 48.3903 31.733 47.7067 31.4205 47.1208C30.8932 46.1442 29.2721 45.7341 27.983 46.4372C27.358 46.7692 26.8502 47.2966 26.3229 47.7262C25.444 45.5583 22.651 45.5192 20.9713 47.863C20.5416 46.5739 19.5651 46.0661 18.3151 46.1052C17.0846 46.1442 16.1862 46.8083 15.4635 47.902C15.0143 46.6325 14.1354 46.0466 12.9244 46.1052C11.7526 46.1637 10.8932 46.8278 10.2291 47.9216C10.2291 47.6091 10.2487 47.4333 10.2291 47.277C10.151 46.7887 9.95569 46.3591 9.38928 46.3395C8.68616 46.3005 7.9635 46.3395 7.22131 46.3395C7.22131 46.652 7.22131 47.6677 7.22131 47.9216C8.25647 48.0192 8.25647 48.0192 8.25647 49.0348C8.25647 50.1481 8.25647 53.8786 8.25647 54.6403C8.94006 54.6403 9.56506 54.6403 10.2291 54.6403C10.2291 53.3903 10.151 52.1598 10.2487 50.9489C10.3072 50.2262 10.5807 49.4645 10.9127 48.8005C11.2838 48.0583 12.2799 47.7067 12.9635 47.9802C13.6666 48.2731 13.7057 48.9372 13.7057 49.5817C13.7057 50.0895 13.7057 50.5778 13.7057 51.0856C13.7057 52.1208 13.7448 54.5036 13.7448 54.6208C14.4088 54.6208 15.0143 54.6208 15.6783 54.6208C15.6783 53.3317 15.6393 52.0817 15.6979 50.8317C15.7369 49.8942 15.9713 49.0153 16.7135 48.3512C17.4948 47.6481 18.7448 47.7848 19.0182 48.5856C19.1158 48.8981 19.1549 49.2302 19.1744 49.5427C19.194 51.0466 19.194 54.4255 19.2135 54.6208C19.8776 54.6208 20.483 54.6208 21.1666 54.6208C21.1666 53.3317 21.1471 52.0622 21.1666 50.7927C21.1862 49.8552 21.4791 48.9762 22.2213 48.3317C23.0026 47.6481 24.233 47.8239 24.4869 48.6442C24.5846 48.9762 24.6237 49.3278 24.6237 49.6598C24.6432 51.1247 24.6432 54.4255 24.6627 54.6208C25.2877 54.6403 25.8932 54.6403 26.5573 54.6403Z" fill="#B56BB3"/>
<path d="M87.944 49.3863C88.8424 45.7925 92.2408 45.2847 94.233 46.8277C94.233 46.2222 94.2525 45.6754 94.2135 45.1285C94.2135 45.0113 94.0182 44.855 93.901 44.8355C93.7057 44.7769 93.4908 44.816 93.2369 44.816C93.2369 44.1519 93.2369 43.5269 93.2369 42.8433C93.9986 42.8433 94.7408 42.8043 95.483 42.8629C96.1861 42.9214 96.44 43.273 96.44 43.9761C96.44 46.5933 96.44 49.23 96.44 51.8472C96.44 52.8629 96.4401 52.8629 97.4557 52.9605C97.4557 53.5464 97.4557 54.1324 97.4557 54.7769C96.694 54.7769 95.9322 54.7964 95.19 54.7769C94.6822 54.7574 94.4283 54.3863 94.3307 53.8589C93.1002 55.0894 91.6744 55.3238 90.1705 54.6402C88.6471 53.9566 88.1002 52.5894 87.944 50.9879C86.0299 50.9879 84.0963 50.9879 82.1236 50.9879C82.2604 51.8668 82.6705 52.5308 83.5104 52.8433C84.7799 53.3511 85.8932 52.9214 86.9674 52.1011C87.2799 52.6089 87.5924 53.1363 87.9244 53.6832C86.6158 54.6597 85.2682 55.1871 83.6275 54.9136C81.7135 54.6011 80.444 53.566 79.9557 51.691C79.233 48.9371 80.8541 45.9293 84.2721 46.0074C86.108 46.0269 87.4947 46.9839 87.944 49.3863ZM94.233 50.5582C94.233 50.3433 94.2525 50.1285 94.233 49.9136C94.1744 48.9761 93.3932 48.0582 92.5924 47.941C91.5768 47.8043 90.7174 48.3511 90.3854 49.3668C90.0729 50.3043 90.1315 51.2027 90.5807 52.0816C91.2252 53.2925 92.9635 53.4488 93.7447 52.316C94.0572 51.8277 94.2721 50.5777 94.233 50.5582ZM85.6197 49.3277C85.6197 48.4683 84.9752 47.7847 84.1744 47.7261C83.2369 47.6675 82.319 48.4097 82.2213 49.3277C83.3541 49.3277 84.4674 49.3277 85.6197 49.3277Z" fill="#B56BB3"/>
<path d="M65.0729 46.2223C65.8541 46.2223 66.5963 46.2028 67.358 46.2223C67.9244 46.2419 68.1783 46.5739 68.3151 47.4333C69.0963 46.4567 70.0533 45.8708 71.3033 46.0075C72.2604 46.1051 73.0612 46.5544 73.3932 47.5895C73.7448 47.2575 74.0573 46.8864 74.4479 46.6129C75.6783 45.7145 77.651 45.7926 78.5299 46.9059C78.9596 47.4528 79.1549 48.0778 79.1549 48.7614C79.1744 49.777 79.1549 50.8122 79.1549 51.8278C79.1549 52.8629 79.1549 52.8629 80.1705 52.9801C80.1705 53.5465 80.1705 54.1325 80.1705 54.777C79.3698 54.777 78.5299 54.8356 77.7291 54.7575C77.2018 54.6989 76.9674 54.2497 76.9674 53.7028C76.9674 52.3161 76.9674 50.9294 76.9674 49.5231C76.9674 48.9372 76.9088 48.3512 76.2838 48.1364C75.6783 47.9215 75.1315 48.1169 74.6627 48.5661C73.9596 49.2497 73.7838 50.1286 73.7448 51.027C73.7057 52.2575 73.7252 53.4879 73.7252 54.7575C72.983 54.7575 72.2994 54.7575 71.5182 54.7575C71.5182 54.5817 71.5182 51.2028 71.5182 49.6989C71.5182 49.0544 71.5377 48.3708 70.7955 48.0973C70.151 47.8434 69.2135 48.2536 68.8815 49.0153C68.569 49.6989 68.3737 50.4606 68.3151 51.2028C68.2174 52.3747 68.2955 53.5465 68.2955 54.7575C67.5729 54.7575 66.8698 54.7575 66.0885 54.7575C66.0885 54.5622 66.0885 50.8122 66.0885 49.1325C66.0885 48.0583 66.3033 48.1559 65.0924 48.0583C65.0729 47.4723 65.0729 46.8864 65.0729 46.2223Z" fill="#B56BB3"/>
<path d="M52.2604 52.9803C52.2604 53.5467 52.2604 54.1131 52.2604 54.7771C51.4401 54.7771 50.6198 54.8357 49.7994 54.7576C49.2526 54.699 49.0377 54.2498 49.0377 53.7029C49.0377 52.4139 49.0377 51.1248 49.0377 49.8162C49.0377 48.742 48.8033 48.2146 48.2565 48.0779C47.5143 47.9021 46.5573 48.3904 46.2252 49.2498C46.0104 49.8162 45.8541 50.4217 45.8346 51.0271C45.776 52.2576 45.8151 53.4881 45.8151 54.7576C45.0729 54.7576 44.3698 54.7576 43.608 54.7576C43.608 53.2146 43.608 51.6717 43.608 50.1287C43.608 49.8748 43.6276 49.6209 43.608 49.367C43.5885 48.8592 43.4908 48.3318 42.9635 48.1365C42.4362 47.9412 41.9088 48.0779 41.4596 48.4295C40.6198 49.1326 40.4244 50.1092 40.3854 51.1248C40.3463 52.3162 40.3658 53.5076 40.3658 54.7576C39.6432 54.7576 38.9401 54.7576 38.1979 54.7576C38.1979 52.6092 38.1979 50.4412 38.1979 48.2146C37.8463 48.1561 37.5143 48.0975 37.1627 48.0389C37.1627 47.4529 37.1627 46.867 37.1627 46.242C37.944 46.242 38.7252 46.2029 39.4869 46.2615C40.1119 46.3201 40.3463 46.8084 40.4049 47.4139C42.5338 45.4803 44.4674 45.5584 45.5221 47.6092C45.8737 47.2771 46.1862 46.9256 46.5573 46.6521C47.7487 45.7732 49.7213 45.8318 50.6002 46.9256C51.0494 47.492 51.2643 48.1365 51.2643 48.8201C51.2838 49.8357 51.2643 50.8709 51.2643 51.8865C51.2448 52.8631 51.2448 52.8631 52.2604 52.9803Z" fill="#B56BB3"/>
<path d="M58.7643 54.7575C58.0026 54.7575 57.319 54.7575 56.5573 54.7575C56.5573 53.7419 56.5573 52.7458 56.5573 51.7497C56.5573 50.8903 56.5573 50.0114 56.5573 49.152C56.5573 48.1559 56.5573 48.1559 55.5416 48.0583C55.5416 47.4723 55.5416 46.8864 55.5416 46.2419C56.3229 46.2419 57.0846 46.1833 57.8463 46.2614C58.5299 46.32 58.7057 46.8669 58.6276 47.6091C59.2916 46.7888 59.9947 46.2614 60.9713 46.0856C62.7291 45.7731 64.4479 46.6325 64.5455 48.488C64.6041 49.6013 64.6432 50.7145 64.6627 51.8278C64.6823 52.8825 64.6627 52.8825 65.6783 52.9997C65.6783 53.5661 65.6783 54.1325 65.6783 54.777C64.8385 54.777 63.9987 54.8161 63.1588 54.7575C62.7682 54.7184 62.4752 54.4255 62.4752 53.9567C62.4557 52.8825 62.4362 51.8083 62.4166 50.7145C62.3971 50.2653 62.3776 49.8356 62.3776 49.3864C62.358 48.0388 61.4596 47.9216 60.6002 48.1169C59.5455 48.3513 58.7838 49.4059 58.7838 50.5583C58.7643 51.945 58.7643 53.3317 58.7643 54.7575Z" fill="#B56BB3"/>
<path d="M55.9518 52.9801C55.9518 53.5465 55.9518 54.1129 55.9518 54.777C55.151 54.777 54.3502 54.8161 53.5494 54.7575C53.0221 54.7184 52.7291 54.2496 52.7291 53.6051C52.7291 52.1207 52.7291 50.6364 52.7291 49.152C52.7291 48.1559 52.7291 48.1559 51.7135 48.0387C51.7135 47.4528 51.7135 46.8668 51.7135 46.2223C52.5143 46.2223 53.3151 46.2028 54.0963 46.2223C54.6237 46.2418 54.9166 46.6129 54.9362 47.1989C54.9362 48.7418 54.9362 50.2848 54.9362 51.8278C54.9362 52.8629 54.9362 52.8629 55.9518 52.9801Z" fill="#B56BB3"/>
<path d="M52.9049 42.863C53.5494 42.863 54.1354 42.863 54.7799 42.863C54.7799 43.5271 54.7799 44.1912 54.7799 44.8943C54.1744 44.8943 53.5494 44.8943 52.9049 44.8943C52.9049 44.2302 52.9049 43.5466 52.9049 42.863Z" fill="#B56BB3"/>
</g>
<defs>
<clipPath id="clip0_3368_1881">
<rect width="100" height="100" fill="white" transform="translate(0.561157 0.577881)"/>
</clipPath>
</defs>
</svg>
