<svg width="121" height="121" viewBox="0 0 121 121" fill="none" xmlns="http://www.w3.org/2000/svg">
<g clip-path="url(#clip0_3368_1830)">
<path d="M49.2158 43.1099C45.8291 43.1099 44.6104 44.87 44.6104 46.2224V47.3052H44.7463C45.2877 46.7638 46.5065 45.8169 48.808 45.8169C50.7041 45.8169 51.5174 46.3583 51.5174 48.1185V48.2544H50.4346C45.6955 48.2544 44.069 50.0146 44.069 52.3161C44.069 54.6177 46.101 56.3778 49.2252 56.3778H49.7643C52.6073 56.3778 54.6369 54.4817 54.6369 51.7747V48.7958C54.6369 44.4622 52.0588 43.1099 49.2229 43.1099M51.5244 51.7817C51.5244 53.1364 50.8471 53.813 49.4924 53.8114C48.1401 53.8114 47.3268 53.27 47.3268 52.1872C47.3268 51.1044 48.0041 50.563 50.4416 50.563H51.5244V51.7817Z" fill="black"/>
<path d="M70.6073 43.1099C69.119 43.1099 67.6284 43.9208 66.9534 45.1396C66.0159 43.9208 64.6494 43.1099 63.0252 43.1099C59.0994 43.1099 57.3393 45.4114 57.3393 48.9317V53.9403C57.3393 55.431 58.2768 56.2419 59.6409 56.2419H60.4541V48.6599C60.4541 46.8997 61.3916 45.9528 62.6198 45.9528C63.9745 45.9528 65.0573 46.8903 65.0573 48.9317V53.8044C65.0573 55.295 65.9948 56.1083 67.3588 56.1083H68.1698V48.5239C68.1698 46.7638 69.119 45.8169 70.3377 45.8169C71.6901 45.8169 72.6393 46.7544 72.6393 48.7958V53.6708C72.6393 55.1591 73.3166 55.9724 75.0768 55.9724H75.8877V48.2544C75.8877 44.87 73.4526 43.1099 70.6073 43.1099Z" fill="black"/>
<path d="M83.7486 43.2341C80.3643 43.2341 79.0096 45.6716 79.0096 48.2451V54.0669C79.0096 55.4216 79.9471 56.099 81.3111 56.099H82.2604V48.7865C82.2604 46.8904 83.0713 46.0794 84.426 46.0794C85.082 46.0539 85.7339 46.1933 86.3221 46.4849H86.4557V45.2662C86.4557 44.3287 85.7807 43.2341 83.7486 43.2341Z" fill="black"/>
<path d="M99.0416 47.9825C99.0416 44.87 96.6041 42.9739 93.8971 42.9739C90.2409 42.9739 87.6674 45.6809 87.6674 49.8786C87.6674 53.8043 90.7823 56.2418 94.033 56.2418C97.5487 56.2418 98.6362 55.0231 98.6362 53.3989V52.4614H98.5002C97.4174 53.3989 95.9221 53.6801 94.5745 53.6801C92.6784 53.6801 91.1877 52.5973 90.9182 51.102H92.9479C97.2815 51.102 99.0416 50.4247 99.0416 47.9872M90.9182 48.9364V48.5286C91.0541 47.0403 92.001 45.8215 93.6252 45.8215C95.1159 45.8215 96.0627 46.4989 96.0627 47.7176C96.0627 48.6551 95.3854 48.9364 92.4065 48.9364H90.9182Z" fill="black"/>
<path d="M106.483 38.9124C102.693 38.9124 101.474 41.7553 101.474 43.6514V54.3483C101.485 54.8478 101.688 55.3239 102.041 55.6769C102.395 56.0299 102.871 56.2325 103.371 56.242H104.723V47.7131H106.078C107.16 47.7131 108.379 47.0358 108.379 45.953V45.1397H104.723V44.0569C104.723 42.2967 105.672 41.8913 107.024 41.8913C107.666 41.8942 108.304 41.9849 108.921 42.1608H109.061V41.078C108.925 39.5897 107.842 38.9124 106.483 38.9124Z" fill="black"/>
<path d="M48.6745 68.4295C47.9971 68.4295 47.737 68.0217 47.737 67.2108V64.3655C47.737 63.2826 47.1955 62.7412 46.5182 62.7412C46.1127 62.7412 45.4354 63.149 45.4354 64.3655V68.2936H44.894C44.2166 68.2936 43.9565 67.8881 43.9565 67.0748V59.085H44.3619C44.5076 59.072 44.6543 59.0912 44.7917 59.1412C44.9292 59.1912 45.0539 59.2707 45.1572 59.3743C45.2605 59.4778 45.3398 59.6027 45.3895 59.7402C45.4392 59.8778 45.458 60.0245 45.4448 60.1701V62.1998C45.7166 61.7944 46.1221 61.2623 46.7995 61.2623C48.2877 61.2623 49.237 62.3451 49.237 64.2412V68.303H48.6955L48.6745 68.4295Z" fill="#D13444"/>
<path d="M52.7362 65.7201H51.787C51.8486 66.1043 52.0473 66.4532 52.3463 66.7023C52.6454 66.9513 53.0245 67.0836 53.4135 67.0748C54.0885 67.0748 54.7659 66.9388 55.1737 66.3974V66.9388C55.1737 67.888 54.6299 68.563 53.0057 68.563C51.5174 68.563 50.0268 67.2107 50.0268 65.0474C50.0268 62.7459 51.2455 61.2576 52.8698 61.2576C54.0885 61.2576 55.3073 62.3404 55.3073 63.9646C55.5791 65.3193 54.7659 65.7248 52.7291 65.7248M52.9987 62.8818C52.3213 62.8818 51.7799 63.5591 51.7799 64.3701V64.6419H52.4573C53.812 64.6419 54.2174 64.506 54.2174 63.9646C54.2174 63.1537 53.676 62.8818 52.9987 62.8818Z" fill="#D13444"/>
<path d="M59.0995 68.5631H58.8276C57.4752 68.5631 56.3901 67.6256 56.3901 66.3975C56.3901 65.1694 57.2034 64.2319 59.369 64.2319H59.9127V64.0936C59.9127 63.1561 59.5049 62.8749 58.694 62.8749C57.6088 62.8749 57.0674 63.2803 56.7979 63.6881V63.1561C56.7979 62.3428 57.3393 61.5295 58.9635 61.5295C60.3182 61.5295 61.5416 62.2069 61.5416 64.6444V66.2686C61.4057 67.6233 60.4588 68.5702 59.1041 68.5702M59.9174 65.4577H59.3737C58.2909 65.4577 57.8854 65.7272 57.8854 66.2686C57.8854 66.81 58.2909 67.0819 58.9682 67.0819C59.6455 67.0819 59.9174 66.6764 59.9174 65.9991V65.4577Z" fill="#D13444"/>
<path d="M64.5158 68.563C63.2971 68.563 62.6198 67.7521 62.6198 66.3974V59.2208H63.0252C63.168 59.2186 63.3098 59.2451 63.4422 59.2987C63.5746 59.3524 63.6948 59.4321 63.7958 59.533C63.8968 59.634 63.9765 59.7543 64.0301 59.8867C64.0838 60.019 64.1102 60.1608 64.108 60.3036V66.1255C64.108 66.8029 64.3799 67.0747 65.0572 67.0747H65.4674V67.4802C65.4674 68.1576 65.1979 68.563 64.5299 68.563" fill="#D13444"/>
<path d="M66.6815 60.4395C66.7451 60.3153 66.8423 60.2114 66.9621 60.1398C67.0818 60.0681 67.2193 60.0315 67.3588 60.0341H67.7643V61.5153H69.7963V62.1927C69.7963 62.5981 69.5245 63.0059 68.8471 63.0059H67.6284V65.713C67.6284 66.6622 68.0362 66.9317 68.5659 66.9317C68.9444 66.9407 69.3185 66.8476 69.6487 66.6622V67.3372C69.6487 68.0145 69.2432 68.4223 68.294 68.4223C66.8057 68.4223 66.1284 67.4731 66.1284 65.8442V61.6583C66.1284 61.1169 66.2643 60.845 66.6698 60.4395" fill="#D13444"/>
<path d="M75.4823 68.4295C74.8049 68.4295 74.5448 68.0217 74.5448 67.2107V64.3654C74.5448 63.2826 74.0034 62.7412 73.326 62.7412C72.9182 62.7412 72.2432 63.149 72.2432 64.3654V68.2935H71.6995C71.0245 68.2935 70.762 67.8881 70.762 67.0748V59.085H71.1674C71.3133 59.0716 71.4603 59.0905 71.598 59.1404C71.7357 59.1902 71.8607 59.2697 71.9643 59.3732C72.0678 59.4768 72.1474 59.6019 72.1972 59.7396C72.247 59.8773 72.2659 60.0243 72.2526 60.1701V62.1998C72.5221 61.7943 72.9276 61.2623 73.6049 61.2623C75.0956 61.2623 76.0424 62.3451 76.0424 64.2412V68.3029H75.501L75.4823 68.4295Z" fill="#D13444"/>
<path d="M82.2533 68.5631H81.9814C80.6268 68.5631 79.5439 67.6256 79.5439 66.3975C79.5439 65.1694 80.3572 64.2319 82.5228 64.2319H83.0643V64.0936C83.0643 63.1561 82.6588 62.8749 81.8455 62.8749C80.7627 62.8749 80.2213 63.2803 79.9494 63.6881V63.1561C79.9494 62.3428 80.4932 61.5295 82.1174 61.5295C83.4697 61.5295 84.6955 62.2069 84.6955 64.6444V66.2686C84.426 67.6233 83.4768 68.5702 82.2604 68.5702M83.0713 65.4577H82.5299C81.4471 65.4577 81.0416 65.7272 81.0416 66.2686C81.0416 66.81 81.4471 67.0819 82.1244 67.0819C82.8018 67.0819 83.0619 66.6764 83.0619 65.9991L83.0713 65.4577Z" fill="#D13444"/>
<path d="M89.0221 60.8451C88.7657 60.7359 88.4867 60.6901 88.2088 60.7115C87.6674 60.7115 87.126 60.981 87.126 61.9302V62.6052H88.8862V62.8771C88.8862 63.5544 88.3448 63.8146 87.8034 63.8146H87.126V68.4294H86.5846C86.3199 68.4011 86.0758 68.2733 85.9018 68.0718C85.7277 67.8704 85.6367 67.6103 85.6471 67.3443V61.5154C85.6471 60.5779 86.1885 58.9373 87.9487 58.9373C88.0942 58.9239 88.2409 58.9428 88.3783 58.9925C88.5157 59.0422 88.6405 59.1215 88.7439 59.2249C88.8472 59.3282 88.9266 59.453 88.9763 59.5904C89.026 59.7279 89.0448 59.8745 89.0315 60.0201V60.831L89.0221 60.8451Z" fill="#D13444"/>
<path d="M93.0838 63.2826C92.8143 63.149 92.6784 63.0131 92.2729 63.0131C91.5956 63.0131 91.1877 63.4186 91.1877 64.5014V68.4295H90.7799C90.6343 68.4425 90.4876 68.4233 90.3501 68.3733C90.2127 68.3233 90.088 68.2437 89.9847 68.1402C89.8814 68.0367 89.8021 67.9118 89.7524 67.7743C89.7027 67.6367 89.6838 67.49 89.6971 67.3443V64.2318C89.6971 62.8771 90.3745 61.5225 91.8627 61.5225C92.812 61.5225 93.0815 62.0639 93.0815 62.6053V63.2826H93.0838Z" fill="#D13444"/>
<path d="M94.844 61.1171C94.65 61.1468 94.4516 61.1163 94.2755 61.0296C94.0994 60.943 93.9542 60.8044 93.8594 60.6326C93.7646 60.4608 93.7248 60.264 93.7454 60.0689C93.766 59.8737 93.846 59.6896 93.9746 59.5414C94.1032 59.3931 94.2742 59.2879 94.4645 59.24C94.6548 59.192 94.8552 59.2036 95.0386 59.2732C95.2221 59.3428 95.3798 59.467 95.4905 59.6291C95.6011 59.7912 95.6593 59.9833 95.6572 60.1796C95.6572 60.585 95.2494 61.1171 94.844 61.1171ZM95.9362 68.5632C94.8533 68.5632 94.176 67.7522 94.176 66.3975V61.7944H94.5838C95.2588 61.7944 95.6666 62.1999 95.6666 63.0132V66.2616C95.6666 66.9389 95.9362 67.2108 96.6041 67.2108H96.8737V67.6092C96.7377 68.1507 96.4658 68.5467 95.9244 68.5467" fill="#D13444"/>
<path d="M102.156 63.8241C102.021 63.4186 101.343 63.1491 100.53 63.1491C99.7166 63.1491 98.9057 63.96 98.9057 64.9092C98.9057 66.1256 99.583 67.0749 100.53 67.0749C101.343 67.0749 101.885 66.803 102.156 66.3975V67.2108C102.156 68.0217 101.479 68.6991 100.396 68.6991C98.7698 68.6991 97.4174 67.2108 97.4174 65.3147C97.4174 63.2827 98.6362 61.6584 100.666 61.6584C101.615 61.6584 102.29 62.3358 102.29 63.1491L102.156 63.8241Z" fill="#D13444"/>
<path d="M105.677 68.5631H105.269C103.917 68.5631 102.834 67.6256 102.834 66.3975C102.834 65.1694 103.645 64.2319 105.813 64.2319H106.354V64.0936C106.354 63.1561 105.946 62.8749 105.135 62.8749C104.053 62.8749 103.509 63.2803 103.239 63.6881V63.1561C103.239 62.3428 103.781 61.5295 105.405 61.5295C106.76 61.5295 107.983 62.2069 107.983 64.6444V66.2686C107.847 67.6233 106.9 68.5702 105.681 68.5702M106.483 65.4506H105.942C104.859 65.4506 104.453 65.7202 104.453 66.2616C104.453 66.803 104.859 67.0749 105.536 67.0749C106.213 67.0749 106.474 66.6694 106.474 65.992L106.483 65.4506Z" fill="#D13444"/>
<path fill-rule="evenodd" clip-rule="evenodd" d="M40.5487 37.8294C38.519 38.3708 37.9705 36.8802 36.4869 36.3388C35.2682 35.9333 33.508 36.2028 33.1026 34.9841C32.9666 34.3091 33.3744 33.4958 33.1026 32.9544C32.833 32.277 31.2065 32.413 30.2596 32.5489C29.332 32.6605 28.4218 32.8873 27.5502 33.2239C25.926 33.9013 24.3018 34.8505 22.5416 34.9841C21.8643 34.9841 21.1869 34.8505 20.7815 34.9841C19.844 35.2559 19.2932 36.4747 18.8854 37.5622C18.344 38.9169 18.344 40.677 17.1252 41.3544C16.8557 41.488 16.3143 41.6239 16.0424 41.7599C15.5301 42.093 15.073 42.5042 14.6877 42.9786C14.2823 43.6559 13.8768 44.7388 13.8768 45.5567C13.8768 46.2341 14.2823 46.6419 14.2823 47.3169C14.4182 48.5356 13.7409 49.6208 13.8768 50.7036C14.1463 51.6411 15.9065 52.8692 16.5838 53.5466C17.8026 54.7653 19.1619 55.4427 21.5948 55.3067C22.6776 55.1708 23.6244 54.7653 24.5737 54.3692C25.5229 53.9731 26.7393 53.4317 27.8221 53.6919C28.4994 53.8255 28.9049 54.2333 29.3104 54.6294C29.7697 55.0676 30.3275 55.3892 30.9369 55.5669C31.6143 55.7028 32.2893 55.1614 33.1026 55.2974C34.5932 55.4333 35.4041 57.1934 35.5401 58.813C35.676 60.4325 35.4041 61.9278 35.8096 63.4161C36.4869 65.8536 38.3877 67.3419 38.3877 69.9153C38.3877 71.8114 37.033 72.6224 37.033 74.6544C37.033 75.1958 37.3049 75.7372 37.4409 76.4145C37.8463 78.0388 37.7104 80.2067 38.1182 81.8309C38.4157 82.8919 38.7757 83.9344 39.1963 84.9528C39.8737 86.577 40.6846 88.3372 42.8502 88.3372C45.4284 88.3372 46.9143 86.577 48.0065 85.0864C48.944 83.8677 49.4948 82.5083 50.444 81.5708C50.9854 81.0294 51.7963 80.6333 52.3377 80.0825C52.0682 79.1333 51.5268 78.0505 51.9323 76.9677C52.6096 75.0716 55.5885 75.0716 56.5354 73.452C56.9432 72.6388 56.9432 71.8278 57.0768 70.6091C57.0768 70.4731 57.0768 70.6091 57.2127 70.6091C57.0768 71.8278 57.2127 72.9106 56.6713 73.7239C56.2659 74.5349 55.3166 74.9427 54.5057 75.4841C53.6948 76.0255 52.7455 76.5669 52.6096 77.3778C52.4737 77.9192 52.6096 78.5966 52.6096 79.0044C52.6096 79.4122 53.0151 80.0872 52.8791 80.4927C52.7455 80.7645 52.0682 81.0341 51.6627 81.3059C50.7135 82.1169 50.1721 83.202 49.4948 84.2849C49.2252 84.8263 48.8174 85.3677 48.5573 85.9091C48.2971 86.4505 48.0159 87.1278 47.4744 87.6692C46.7971 88.3466 45.8479 88.752 44.4955 89.1575C43.0049 89.5653 40.5674 89.6989 39.6205 88.888C38.6737 88.077 37.9963 85.9091 37.4549 84.4184C37.183 83.6075 36.9119 82.7958 36.6416 81.9833C36.3721 81.0458 36.2362 80.2231 35.9643 79.4052C35.6948 78.7278 35.1534 78.0505 34.7455 77.2395C34.3401 76.5622 33.808 75.7489 33.808 74.938C33.808 73.1778 35.5682 72.3598 35.7041 70.7403C35.8377 69.2497 34.6213 67.6255 33.944 66.6786C33.5362 65.5934 32.1838 64.2411 32.0479 62.8864C31.9119 61.3981 33.5362 59.638 32.0479 58.8247C31.5065 58.5528 30.5573 58.5528 29.7463 58.2833C28.9354 58.0138 28.6635 57.2005 27.9862 56.9286C26.3619 56.5231 25.2768 58.0114 23.6526 58.4192C22.8416 58.5528 22.1643 58.0114 21.2151 58.0114C20.1323 58.0114 19.3213 58.4192 18.3721 58.2833C17.2893 58.1474 16.476 57.3458 15.794 56.5231C14.7088 55.3044 13.7619 54.3575 12.8151 53.0075C12.4073 52.4661 11.7299 51.7888 11.5963 50.9755C11.4604 49.7567 12.4073 49.2153 12.5338 48.1325C12.6698 47.195 12.2619 46.3724 12.3979 45.4255C12.3764 45.1474 12.4231 44.8682 12.5338 44.6122C12.8057 43.1239 13.8885 41.2278 14.9713 40.5505C15.7846 40.0091 17.001 39.8731 17.5494 38.9263C17.9549 38.2489 18.0909 37.1661 18.4869 36.4888C18.8056 36.005 19.1681 35.5515 19.5698 35.1341C19.5538 34.8363 19.6372 34.5417 19.8069 34.2964C19.9766 34.0512 20.2229 33.8694 20.5073 33.7794C21.5924 33.5099 22.8112 34.0513 24.0229 33.9153C25.2346 33.7794 26.3268 33.238 27.4096 32.8325C28.6284 32.427 29.8471 31.895 30.9252 31.7497C32.0034 31.6044 33.3627 31.7497 33.6323 32.427C33.9041 33.238 33.3627 34.0513 33.4963 34.8645C33.7682 35.6755 34.7151 35.4059 35.9338 35.6755C37.558 36.2169 38.3713 37.977 40.5369 37.8434" fill="#D13444"/>
<path d="M58.0166 77.0944C57.4752 76.9584 56.9338 77.4998 56.6619 77.9053C56.5331 78.2485 56.3503 78.5689 56.1205 78.8545C55.9846 78.9905 55.5791 78.8545 55.3072 78.9905C53.8189 79.1241 55.4432 80.4787 54.3697 80.8842C54.2338 80.8842 54.2338 81.1561 54.2338 81.1561C54.2338 81.8334 54.0978 82.5108 54.5057 83.1881C55.0471 83.8631 55.9939 84.2709 56.6713 83.7295C57.2127 83.3217 57.2127 82.103 57.3486 81.5616C57.3486 79.3959 58.2861 78.9834 58.7033 77.9053C58.7033 77.7717 58.5674 78.1772 58.4314 78.3131C57.2127 80.2092 56.9432 81.0201 57.0768 82.5108C57.2127 83.8631 54.4986 84.4045 54.7752 81.428C54.7752 81.1561 55.183 81.292 55.183 80.7506C55.3166 80.2092 54.9111 79.9373 55.4525 79.5319C55.858 79.3959 56.2658 79.3959 56.8072 78.8545C57.2127 78.3131 57.3486 77.3639 58.2955 77.4998C58.5674 77.2303 58.1596 77.0944 58.026 77.0944" fill="#D13444"/>
</g>
<defs>
<clipPath id="clip0_3368_1830">
<rect width="120" height="120" fill="white" transform="translate(0.311157 0.577881)"/>
</clipPath>
</defs>
</svg>
