<svg width="71" height="71" viewBox="0 0 71 71" fill="none" xmlns="http://www.w3.org/2000/svg">
<path d="M9.00916 41.1714V61.4091H61.7561V41.1714C53.6503 44.5962 44.7392 46.4858 35.3773 46.4858C26.0368 46.4965 17.1257 44.5962 9.00916 41.1714Z" fill="#F47920"/>
<path d="M9.00916 8.67285V41.1821C17.115 44.6069 26.026 46.4965 35.388 46.4965C44.7392 46.4965 53.661 44.6069 61.7668 41.1713V8.67285H9.00916Z" fill="#065BAA"/>
<path d="M61.7668 8.20068H9.00914H8.54749V8.66234V61.4093V61.8709H9.00914H61.7561H62.2177V61.4093V8.67308V8.20068H61.7668ZM61.7668 8.67308V40.9246L61.6809 40.9676C53.3604 44.489 44.5137 46.2712 35.3987 46.2712C26.2837 46.2712 17.4371 44.489 9.1165 40.9676L9.03061 40.9246V8.67308H61.7668ZM9.00914 61.42V41.4292C17.3619 44.9507 26.2407 46.7329 35.388 46.7329C44.5352 46.7329 53.4033 44.9507 61.7668 41.4292V61.42H9.00914Z" fill="white"/>
<path d="M12.026 53.7651V53.7544C12.026 52.7666 12.6916 51.9507 13.6472 51.9507C14.1303 51.9507 14.4524 52.1117 14.7208 52.3479C14.7852 52.4016 14.8281 52.4875 14.8281 52.5949C14.8281 52.7666 14.71 52.8955 14.549 52.8955C14.4739 52.8955 14.4202 52.8633 14.3772 52.8311C14.1625 52.6378 13.9263 52.5197 13.6257 52.5197C13.0245 52.5197 12.5843 53.0672 12.5843 53.7544V53.7651C12.5843 54.4522 13.0245 54.9998 13.6257 54.9998C13.9585 54.9998 14.184 54.8817 14.4094 54.6669C14.4524 54.624 14.5061 54.5918 14.5812 54.5918C14.7208 54.5918 14.8389 54.7206 14.8389 54.8817C14.8389 54.9783 14.7959 55.0534 14.753 55.0964C14.4524 55.3863 14.1196 55.5688 13.615 55.5688C12.7131 55.5688 12.026 54.7743 12.026 53.7651Z" fill="white"/>
<path d="M15.2039 53.7651V53.7544C15.2039 52.7666 15.891 51.9507 16.8573 51.9507C17.8236 51.9507 18.4999 52.7666 18.4999 53.7436V53.7544C18.4999 54.7421 17.8128 55.558 16.8466 55.558C15.8803 55.558 15.2039 54.7528 15.2039 53.7651ZM17.9094 53.7651V53.7544C17.9094 53.078 17.4693 52.509 16.8358 52.509C16.2024 52.509 15.7729 53.0672 15.7729 53.7436V53.7544C15.7729 54.4307 16.2131 54.989 16.8466 54.989C17.48 54.9998 17.9094 54.4415 17.9094 53.7651Z" fill="white"/>
<path d="M19.1119 52.3048C19.1119 52.133 19.23 51.9934 19.391 51.9934H19.4447C19.5735 51.9934 19.6594 52.0686 19.7346 52.1759L21.3021 54.4413V52.294C21.3021 52.133 21.4202 51.9934 21.5705 51.9934C21.7208 51.9934 21.8496 52.133 21.8496 52.294V55.225C21.8496 55.3968 21.7315 55.5256 21.5812 55.5256H21.5597C21.4309 55.5256 21.345 55.4505 21.2699 55.3431L19.6594 53.0133V55.225C19.6594 55.386 19.5413 55.5256 19.391 55.5256C19.2407 55.5256 19.1119 55.386 19.1119 55.225V52.3048Z" fill="white"/>
<path d="M23.342 52.5839H22.5797C22.4401 52.5839 22.322 52.4551 22.322 52.294C22.322 52.133 22.4294 52.0042 22.5797 52.0042H24.6732C24.8128 52.0042 24.9202 52.133 24.9202 52.294C24.9202 52.4551 24.8128 52.5839 24.6732 52.5839H23.9002V55.225C23.9002 55.3968 23.7714 55.5256 23.6211 55.5256C23.4708 55.5256 23.342 55.3861 23.342 55.225V52.5839Z" fill="white"/>
<path d="M25.3926 52.3155C25.3926 52.1437 25.5107 52.0042 25.6717 52.0042H26.799C27.1963 52.0042 27.5076 52.133 27.7116 52.3584C27.8726 52.5517 27.9693 52.8094 27.9693 53.11V53.1207C27.9693 53.679 27.6794 54.0226 27.2607 54.1621L27.8619 55.0103C27.9156 55.0854 27.9478 55.1499 27.9478 55.2465C27.9478 55.4183 27.819 55.5364 27.6794 55.5364C27.5505 55.5364 27.4754 55.4719 27.411 55.3753L26.638 54.291H25.9401V55.225C25.9401 55.3968 25.822 55.5256 25.661 55.5256C25.4999 55.5256 25.3818 55.3968 25.3818 55.225V52.3155H25.3926ZM26.7561 53.7434C27.1533 53.7434 27.4002 53.518 27.4002 53.1637V53.1529C27.4002 52.7772 27.1533 52.5732 26.7453 52.5732H25.9401V53.7434H26.7561Z" fill="white"/>
<path d="M28.6027 55.1928V52.3155C28.6027 52.1437 28.7208 52.0042 28.8818 52.0042H30.707C30.8465 52.0042 30.9539 52.133 30.9539 52.2833C30.9539 52.4443 30.8465 52.5624 30.707 52.5624H29.1502V53.475H30.503C30.6318 53.475 30.7499 53.6038 30.7499 53.7541C30.7499 53.9045 30.6425 54.0226 30.503 54.0226H29.1502V54.9566H30.7284C30.8573 54.9566 30.9754 55.0854 30.9754 55.2357C30.9754 55.3861 30.868 55.5149 30.7284 55.5149H28.8818C28.7315 55.5042 28.6027 55.3646 28.6027 55.1928Z" fill="white"/>
<path d="M32.8757 52.294C32.8757 52.1222 32.9938 51.9934 33.1548 51.9934C33.3051 51.9934 33.434 52.133 33.434 52.294V54.9459H34.8619C35.0014 54.9459 35.1088 55.0747 35.1088 55.225C35.1088 55.3753 35.0014 55.5041 34.8619 55.5041H33.1655C33.0045 55.5041 32.8864 55.3646 32.8864 55.1928V52.294H32.8757Z" fill="white"/>
<path d="M35.5705 55.1928V52.3155C35.5705 52.1437 35.6886 52.0042 35.8496 52.0042H37.6748C37.8144 52.0042 37.9217 52.133 37.9217 52.2833C37.9217 52.4443 37.8144 52.5624 37.6748 52.5624H36.118V53.475H37.4708C37.5996 53.475 37.7177 53.6038 37.7177 53.7541C37.7177 53.9045 37.6104 54.0226 37.4708 54.0226H36.118V54.9566H37.6963C37.8251 54.9566 37.9432 55.0854 37.9432 55.2357C37.9432 55.3861 37.8251 55.5149 37.6963 55.5149H35.8496C35.6886 55.5042 35.5705 55.3646 35.5705 55.1928Z" fill="white"/>
<path d="M39.7039 53.7651V53.7544C39.7039 52.7666 40.3696 51.9507 41.3251 51.9507C41.8082 51.9507 42.1303 52.1117 42.3987 52.3479C42.4631 52.4016 42.5061 52.4875 42.5061 52.5949C42.5061 52.7666 42.388 52.8955 42.2269 52.8955C42.1518 52.8955 42.0981 52.8633 42.0659 52.8311C41.8512 52.6378 41.615 52.5197 41.3143 52.5197C40.7131 52.5197 40.2729 53.0672 40.2729 53.7544V53.7651C40.2729 54.4522 40.7024 54.9998 41.3143 54.9998C41.6472 54.9998 41.8726 54.8817 42.0981 54.6669C42.141 54.624 42.1947 54.5918 42.2699 54.5918C42.4094 54.5918 42.5275 54.7206 42.5275 54.8817C42.5275 54.9783 42.4846 55.0534 42.4416 55.0964C42.141 55.3863 41.8082 55.5688 41.3036 55.5688C40.3803 55.5688 39.7039 54.7743 39.7039 53.7651Z" fill="white"/>
<path d="M42.9355 55.1071L44.1058 52.2084C44.1702 52.0581 44.2776 51.9614 44.4386 51.9614H44.4708C44.6318 51.9614 44.7392 52.0581 44.7929 52.2084L45.9631 55.1071C45.9846 55.1501 45.9953 55.193 45.9953 55.236C45.9953 55.397 45.888 55.5258 45.7377 55.5258C45.6088 55.5258 45.5229 55.44 45.4693 55.3111L45.2116 54.6562H43.6871L43.4187 55.3326C43.3757 55.4614 43.2791 55.5258 43.161 55.5258C43.0214 55.5258 42.9033 55.397 42.9033 55.236C42.8926 55.2038 42.9033 55.1608 42.9355 55.1071ZM44.9861 54.1194L44.4386 52.7022L43.891 54.1194H44.9861Z" fill="white"/>
<path d="M46.4785 52.3048C46.4785 52.133 46.5966 51.9934 46.7576 51.9934H46.8113C46.9508 51.9934 47.026 52.0686 47.1012 52.1759L48.6794 54.4413V52.294C48.6794 52.133 48.7975 51.9934 48.9478 51.9934C49.0981 51.9934 49.2269 52.133 49.2269 52.294V55.225C49.2269 55.3968 49.1088 55.5256 48.9585 55.5256H48.937C48.8082 55.5256 48.7223 55.4505 48.6472 55.3431L47.026 53.0133V55.225C47.026 55.386 46.9079 55.5256 46.7576 55.5256C46.6073 55.5256 46.4785 55.386 46.4785 55.225V52.3048Z" fill="white"/>
<path d="M49.8281 53.7651V53.7544C49.8281 52.7666 50.4938 51.9507 51.4493 51.9507C51.9324 51.9507 52.2545 52.1117 52.5336 52.3479C52.5981 52.4016 52.641 52.4875 52.641 52.5949C52.641 52.7666 52.5229 52.8955 52.3619 52.8955C52.2867 52.8955 52.233 52.8633 52.1901 52.8311C51.9754 52.6378 51.7392 52.5197 51.4386 52.5197C50.8373 52.5197 50.3971 53.0672 50.3971 53.7544V53.7651C50.3971 54.4522 50.8373 54.9998 51.4386 54.9998C51.7714 54.9998 51.9968 54.8817 52.2223 54.6669C52.2652 54.624 52.3189 54.5918 52.3941 54.5918C52.5336 54.5918 52.6517 54.7206 52.6517 54.8817C52.6517 54.9783 52.6088 55.0534 52.5659 55.0964C52.2652 55.3863 51.9324 55.5688 51.4278 55.5688C50.5152 55.5688 49.8281 54.7743 49.8281 53.7651Z" fill="white"/>
<path d="M53.2315 55.1928V52.3155C53.2315 52.1437 53.3496 52.0042 53.5106 52.0042H55.3358C55.4754 52.0042 55.5827 52.133 55.5827 52.2833C55.5827 52.4443 55.4754 52.5624 55.3358 52.5624H53.779V53.475H55.1318C55.2606 53.475 55.3787 53.6038 55.3787 53.7541C55.3787 53.9045 55.2714 54.0226 55.1318 54.0226H53.779V54.9566H55.3573C55.4968 54.9566 55.6042 55.0854 55.6042 55.2357C55.6042 55.3861 55.4968 55.5149 55.3573 55.5149H53.5106C53.3603 55.5042 53.2315 55.3646 53.2315 55.1928Z" fill="white"/>
<path d="M56.184 52.3155C56.184 52.1437 56.3021 52.0042 56.4631 52.0042H57.5904C57.9876 52.0042 58.299 52.133 58.503 52.3584C58.664 52.5517 58.7606 52.8094 58.7606 53.11V53.1207C58.7606 53.679 58.4708 54.0226 58.0521 54.1621L58.6533 55.0103C58.707 55.0854 58.7392 55.1499 58.7392 55.2465C58.7392 55.4183 58.6103 55.5364 58.4708 55.5364C58.3419 55.5364 58.2668 55.4719 58.2024 55.3753L57.4401 54.291H56.7422V55.225C56.7422 55.3968 56.6241 55.5256 56.4631 55.5256C56.3021 55.5256 56.184 55.3968 56.184 55.225V52.3155ZM57.5367 53.7434C57.934 53.7434 58.1809 53.518 58.1809 53.1637V53.1529C58.1809 52.7772 57.934 52.5732 57.526 52.5732H56.7208V53.7434H57.5367Z" fill="white"/>
<path d="M52.1257 22.7373H51.1057C50.934 22.7373 50.7837 22.8769 50.7837 23.0594V27.5042C50.7837 28.9106 50.3327 29.8339 49.0659 29.8339C47.799 29.8339 47.3481 28.9106 47.3481 27.5042V23.0594C47.3481 22.8876 47.2085 22.7373 47.026 22.7373H46.006C45.8343 22.7373 45.684 22.8769 45.684 23.0594V28.0088C45.684 30.2204 47.3159 31.133 49.0551 31.133C50.7837 31.133 52.4263 30.2204 52.4263 28.0088V23.0594C52.437 22.8876 52.2975 22.7373 52.1257 22.7373Z" fill="white"/>
<path d="M22.934 30.9934H24.1365C24.3082 30.9934 24.4049 30.8646 24.3404 30.7036L23.6104 28.8462L23.5782 28.7603L22.3435 25.6146L21.3343 23.0379C21.2699 22.8769 21.0766 22.748 20.9049 22.748H19.6595C19.4877 22.748 19.2944 22.8769 19.23 23.0379L16.6319 29.6944H13.7331V23.0594C13.7331 22.8876 13.5935 22.7373 13.411 22.7373H12.3911C12.2193 22.7373 12.069 22.8769 12.069 23.0594V30.6714C12.069 30.8539 12.2085 30.9934 12.3911 30.9934H16.1165H16.7285H17.1579H17.5122C17.684 30.9934 17.8773 30.8646 17.9417 30.7036C17.9417 30.7036 18.253 29.8769 18.2423 29.9091L18.5429 29.1039H21.9141L22.5153 30.7036C22.569 30.8539 22.7622 30.9934 22.934 30.9934ZM19.0368 27.7941L20.2285 24.3907H20.25L21.4417 27.7941H19.0368Z" fill="white"/>
<path d="M28.6456 30.9934H32.6717C32.8435 30.9934 32.9938 30.8539 32.9938 30.6713V30.0057C32.9938 29.8339 32.8542 29.6836 32.6717 29.6836H29.9877V25.8401V23.0486C29.9877 22.8769 29.8481 22.7266 29.6656 22.7266H28.6456C28.4739 22.7266 28.3235 22.8661 28.3235 23.0486V25.8401V30.6606C28.3235 30.8431 28.4631 30.9934 28.6456 30.9934Z" fill="white"/>
<path d="M58.707 30.6713V30.0057C58.707 29.8339 58.5674 29.6836 58.3849 29.6836H55.4647V27.3646H58.095C58.2668 27.3646 58.4171 27.225 58.4171 27.0425V26.3769C58.4171 26.2051 58.2775 26.0655 58.095 26.0655H55.4647V24.0364H58.3634C58.5352 24.0364 58.6855 23.8968 58.6855 23.7143V23.0486C58.6855 22.8769 58.5459 22.7266 58.3634 22.7266H54.1334C53.9508 22.7266 53.8113 22.8661 53.8113 23.0486V30.6606C53.8113 30.8431 53.9508 30.9827 54.1334 30.9827H58.3849C58.5674 30.9934 58.707 30.8431 58.707 30.6713Z" fill="white"/>
<path d="M33.8634 30.6715V25.8509V23.0595C33.8634 22.8877 34.003 22.7374 34.1855 22.7374H35.2055C35.3773 22.7374 35.5276 22.877 35.5276 23.0595V25.8509V30.6715C35.5276 30.8433 35.388 30.9936 35.2055 30.9936H34.1855C34.0138 30.9936 33.8634 30.8433 33.8634 30.6715ZM34.6901 20.515C35.2269 20.515 35.6564 20.0856 35.6564 19.5488C35.6564 19.012 35.2269 18.5718 34.6901 18.5718C34.1533 18.5718 33.7239 19.012 33.7239 19.5488C33.7239 20.0748 34.1533 20.515 34.6901 20.515Z" fill="white"/>
<path d="M42.9785 30.4783C44.1165 29.716 44.6318 28.3632 44.6318 26.8602C44.6318 24.5519 43.4186 22.5979 40.5843 22.5979C37.7607 22.5979 36.5367 24.5626 36.5367 26.8602C36.5367 29.1685 37.7499 31.1224 40.5843 31.1224C42.549 31.1224 42.9033 33.1731 42.9033 34.0964C42.9033 35.0089 42.549 37.0703 40.5843 37.0703C38.9202 37.0703 38.4048 35.6102 38.2867 34.601C38.2653 34.4399 38.1364 34.3218 37.9754 34.3218H36.8803C36.6978 34.3218 36.5475 34.4829 36.569 34.6654C36.7622 36.716 37.9969 38.3586 40.5843 38.3586C43.4079 38.3586 44.6318 36.3939 44.6318 34.0964C44.6318 32.604 44.1165 31.2513 42.9785 30.4783ZM38.2653 26.8602C38.2653 25.9476 38.6196 23.8862 40.595 23.8862C42.5705 23.8862 42.914 25.9369 42.914 26.8602C42.914 27.7727 42.5597 29.8341 40.595 29.8341C38.6303 29.8341 38.2653 27.7835 38.2653 26.8602Z" fill="white"/>
</svg>
