<svg width="146" height="43" viewBox="0 0 146 43" fill="none" xmlns="http://www.w3.org/2000/svg">
<g clip-path="url(#clip0_3368_1875)">
<path d="M102.176 17.538H83.3231V25.7046H93.4879C92.9666 27.0946 92.2716 28.3978 91.2291 29.4404C89.3177 31.3517 86.7983 32.1336 84.1919 32.1336C77.9367 32.1336 73.9403 27.6159 73.9403 21.5344C73.9403 15.6267 78.458 11.2828 84.2788 11.2828C88.0146 11.2828 91.2291 12.6728 92.706 16.148H101.568C100.178 8.32891 92.5322 3.11621 84.8869 3.11621C80.6299 3.11621 76.4597 4.24563 73.0715 6.93886C69.9439 9.37145 68.0326 12.7597 66.7294 16.4955V4.50626C57.4334 5.28817 51.96 13.8022 49.0931 21.7082C47.3555 17.4511 45.3573 13.281 42.2297 9.89272C39.2758 6.7651 35.7138 4.68002 31.3699 4.41939V38.7363H39.6233V20.2312C43.2722 25.7046 45.0098 32.3073 45.0967 38.8232H52.9157C53.0026 32.3073 54.3926 25.5308 58.389 20.2312V38.8232H66.6425V26.834C67.5982 30.4829 69.3357 33.6974 72.2896 36.2169C75.591 38.997 79.848 40.1264 84.105 40.1264C89.7521 40.1264 94.9648 37.8676 98.5269 33.4368C100.351 31.091 101.568 28.6585 102.176 25.7046V38.8232H119.899V30.5698H110.69V25.7046H119.899V17.538H110.69V12.7597H119.899V4.50626H102.176V17.538Z" fill="#2162A5"/>
<path d="M137.101 4.50635V17.5381C136.058 15.2793 134.321 13.4548 132.583 11.7173C129.803 9.1109 124.938 5.20137 121.202 4.50635V38.8233H129.456V22.3164C134.147 25.9653 136.84 33.1762 137.883 38.8233H145.354V4.50635H137.101Z" fill="#2162A5"/>
<path d="M6.52265 21.4476C4.78508 25.1833 3.22127 29.1797 2.09185 33.0893L0.701797 37.9544L0.441162 38.8232H8.69461L8.95524 37.7807L9.65027 35.1743L10.3453 32.7417L10.8666 31.1779L11.1272 30.4829H21.7264V38.8232H29.9798V4.33252C29.7192 4.33252 29.4585 4.33252 29.1979 4.33252C18.1643 4.33252 10.8666 11.8041 6.52265 21.4476ZM21.6395 22.3163H14.7761C16.5137 18.8412 17.9906 16.148 21.6395 14.4973V22.3163Z" fill="#2162A5"/>
</g>
<defs>
<clipPath id="clip0_3368_1875">
<rect width="145" height="42" fill="white" transform="translate(0.441162 0.577881)"/>
</clipPath>
</defs>
</svg>
