<svg width="70" height="71" viewBox="0 0 70 71" fill="none" xmlns="http://www.w3.org/2000/svg">
<g clip-path="url(#clip0_3368_2281)">
<g clip-path="url(#clip1_3368_2281)">
<path d="M12.6804 52.072L35.3444 63.6048L57.1476 52.072V6.97363H12.6804V52.072Z" fill="white"/>
<path d="M57.6066 7.14551L12.2213 52.875L35.7459 64.5226L57.6066 53.334V7.14551Z" fill="#F2F3F2"/>
<path d="M11.1886 22.007V53.048L11.9919 53.4496L34.6558 64.9824L35.3443 65.3267L36.0329 64.9824L57.8935 53.4496L58.6968 53.048V5.48242H11.1886V22.007ZM12.6804 52.1873V6.97423H57.205V52.1873L35.3443 63.7201L12.6804 52.1873Z" fill="#DCDEDC"/>
<path d="M34.9427 7.72013C35.1722 7.72013 35.4017 7.72013 35.6312 7.7775L34.9427 9.09718C33.9099 9.0398 32.9918 9.84308 32.9345 10.8759C32.8771 11.9087 33.6804 12.8267 34.7132 12.8841H34.9427C35.4017 12.8841 35.8607 12.7119 36.205 12.425L36.9509 13.6873C36.3771 14.089 35.6886 14.3185 34.9427 14.3185C33.1066 14.3759 31.5574 12.9988 31.5 11.1628C31.4427 9.32668 32.8197 7.7775 34.6558 7.72013H34.9427ZM37.2951 10.5316L38.1558 11.966L37.2951 13.3431L36.4918 11.966H34.8279L35.6886 10.5316H37.2951ZM35.9181 10.0152C35.9181 9.7857 35.9754 9.55619 36.0902 9.38406C36.205 9.21193 36.4345 9.0398 36.6066 8.92505L36.7213 8.86767C36.9509 8.75291 37.0082 8.69554 37.0082 8.58078C37.0082 8.46603 36.8361 8.35127 36.7213 8.35127C36.4918 8.35127 36.3197 8.46603 36.205 8.69554L35.9181 8.40865C35.9754 8.2939 36.0902 8.17914 36.205 8.06439C36.3771 7.94964 36.5492 7.94964 36.7213 7.94964C36.8935 7.94964 37.123 8.00701 37.2377 8.12177C37.3525 8.23652 37.4672 8.40865 37.4672 8.58078C37.4672 8.86767 37.2951 9.09718 36.9509 9.21193L36.7787 9.32668C36.6066 9.44144 36.4918 9.49882 36.4345 9.67095H37.4672V10.0726L35.9181 10.0152ZM34.9427 17.1873L40.3935 14.089V5.48242H29.4345V14.0316L34.9427 17.1873ZM59.7869 37.4988H10.0984L8.26233 41.5152L10.0984 45.5316H59.7869L61.5656 41.5152L59.7869 37.4988Z" fill="#FF492C"/>
<path d="M17.959 28.8864C18.3377 28.8864 18.6705 28.9629 18.9574 29.1159C19.2443 29.2689 19.4661 29.4888 19.623 29.7757C19.7798 30.0588 19.8582 30.3839 19.8582 30.7511C19.8582 31.1145 19.7779 31.4339 19.6172 31.7093C19.4528 31.9809 19.2232 32.1932 18.9287 32.3462C18.6342 32.4992 18.2937 32.5757 17.9074 32.5757H16.6853C16.6585 32.5757 16.6451 32.591 16.6451 32.6216V34.8134C16.6451 34.844 16.6336 34.8689 16.6107 34.888C16.5916 34.9071 16.5667 34.9167 16.5361 34.9167H15.532C15.5014 34.9167 15.4765 34.9071 15.4574 34.888C15.4383 34.8689 15.4287 34.844 15.4287 34.8134V28.9896C15.4287 28.959 15.4383 28.9342 15.4574 28.9151C15.4765 28.8959 15.5014 28.8864 15.532 28.8864H17.959ZM17.7754 31.606C18.0432 31.606 18.2555 31.5295 18.4123 31.3765C18.573 31.2235 18.6533 31.0246 18.6533 30.7798C18.6533 30.5235 18.573 30.3189 18.4123 30.1659C18.2555 30.009 18.0432 29.9306 17.7754 29.9306H16.6853C16.6585 29.9306 16.6451 29.9459 16.6451 29.9765V31.5601C16.6451 31.5907 16.6585 31.606 16.6853 31.606H17.7754ZM24.2017 32.2487C24.2323 32.4667 24.2418 32.7096 24.2303 32.9773C24.2265 33.05 24.1902 33.0864 24.1213 33.0864H21.4648C21.4303 33.0864 21.417 33.0997 21.4246 33.1265C21.4437 33.2413 21.4763 33.356 21.5222 33.4708C21.6713 33.7921 21.9754 33.9528 22.4344 33.9528C22.8017 33.9489 23.0905 33.7997 23.3008 33.5052C23.3276 33.4708 23.3544 33.4536 23.3812 33.4536C23.3965 33.4536 23.4156 33.465 23.4385 33.488L24.0582 34.0962C24.0888 34.1268 24.1041 34.1536 24.1041 34.1765C24.1041 34.188 24.0926 34.211 24.0697 34.2454C23.8784 34.4825 23.6355 34.6642 23.341 34.7905C23.0388 34.9205 22.7099 34.9855 22.3541 34.9855C21.8645 34.9855 21.4476 34.8746 21.1033 34.6528C20.7629 34.4271 20.5181 34.1134 20.3689 33.7118C20.2465 33.4249 20.1853 33.05 20.1853 32.5872C20.1853 32.2697 20.2293 31.9905 20.3172 31.7495C20.4511 31.344 20.6825 31.0208 21.0115 30.7798C21.3405 30.5388 21.7306 30.4183 22.182 30.4183C22.7558 30.4183 23.2167 30.5847 23.5648 30.9175C23.9129 31.2503 24.1252 31.694 24.2017 32.2487ZM22.1935 31.4683C21.8301 31.4683 21.591 31.6366 21.4763 31.9732C21.4533 32.0497 21.4342 32.1416 21.4189 32.2487C21.4189 32.2754 21.4342 32.2888 21.4648 32.2888H22.9508C22.9853 32.2888 22.9967 32.2754 22.9853 32.2487C22.9547 32.0842 22.9394 32.0038 22.9394 32.0077C22.8896 31.8355 22.7997 31.7017 22.6697 31.606C22.5435 31.5142 22.3847 31.4683 22.1935 31.4683ZM27.1853 30.4355C27.3918 30.4355 27.5563 30.4757 27.6787 30.556C27.7208 30.579 27.7361 30.6211 27.7246 30.6823L27.5467 31.6634C27.5429 31.7323 27.5028 31.7533 27.4263 31.7265C27.3383 31.6959 27.2388 31.6806 27.1279 31.6806C27.082 31.6806 27.017 31.6864 26.9328 31.6978C26.7301 31.717 26.556 31.7935 26.4107 31.9273C26.2691 32.0612 26.1984 32.241 26.1984 32.4667V34.8134C26.1984 34.844 26.1869 34.8689 26.164 34.888C26.1448 34.9071 26.1219 34.9167 26.0951 34.9167H25.0853C25.0585 34.9167 25.0336 34.9071 25.0107 34.888C24.9916 34.8689 24.982 34.844 24.982 34.8134V30.5962C24.982 30.5694 24.9916 30.5446 25.0107 30.5216C25.0336 30.5025 25.0585 30.4929 25.0853 30.4929H26.0951C26.1219 30.4929 26.1448 30.5025 26.164 30.5216C26.1869 30.5446 26.1984 30.5694 26.1984 30.5962V30.9232C26.1984 30.9385 26.2041 30.95 26.2156 30.9577C26.2232 30.9653 26.2309 30.9615 26.2385 30.9462C26.4757 30.6058 26.7913 30.4355 27.1853 30.4355ZM30.8517 30.4872C30.8823 30.4872 30.9071 30.4967 30.9263 30.5159C30.9454 30.535 30.9549 30.5599 30.9549 30.5905V31.4052C30.9549 31.4358 30.9454 31.4607 30.9263 31.4798C30.9071 31.4989 30.8823 31.5085 30.8517 31.5085H30.0197C29.9891 31.5085 29.9738 31.5219 29.9738 31.5487V34.8134C29.9738 34.844 29.9642 34.8689 29.9451 34.888C29.926 34.9071 29.9011 34.9167 29.8705 34.9167H28.8664C28.8358 34.9167 28.811 34.9071 28.7918 34.888C28.7727 34.8689 28.7631 34.844 28.7631 34.8134V31.5487C28.7631 31.5219 28.7478 31.5085 28.7172 31.5085H28.2123C28.1817 31.5085 28.1569 31.4989 28.1377 31.4798C28.1186 31.4607 28.109 31.4358 28.109 31.4052V30.5905C28.109 30.5599 28.1186 30.535 28.1377 30.5159C28.1569 30.4967 28.1817 30.4872 28.2123 30.4872H28.7172C28.7478 30.4872 28.7631 30.4719 28.7631 30.4413V30.2519C28.7631 29.8962 28.8167 29.6189 28.9238 29.42C29.0347 29.2249 29.2107 29.0853 29.4517 29.0011C29.6965 28.917 30.035 28.8806 30.4672 28.8921H30.7943C30.8211 28.8921 30.844 28.9017 30.8631 28.9208C30.8861 28.9437 30.8976 28.9686 30.8976 28.9954V29.6896C30.8976 29.7202 30.8861 29.7451 30.8631 29.7642C30.844 29.7872 30.8211 29.7987 30.7943 29.7987H30.5074C30.3085 29.8025 30.1689 29.8426 30.0885 29.9191C30.012 29.9995 29.9738 30.1429 29.9738 30.3495V30.4413C29.9738 30.4719 29.9891 30.4872 30.0197 30.4872H30.8517ZM33.3476 34.9855C32.8656 34.9855 32.4525 34.8593 32.1082 34.6069C31.764 34.3544 31.5287 34.0101 31.4025 33.5741C31.3222 33.3063 31.282 33.0137 31.282 32.6962C31.282 32.3596 31.3222 32.0555 31.4025 31.7839C31.5364 31.3593 31.7754 31.0265 32.1197 30.7855C32.464 30.5446 32.8771 30.4241 33.359 30.4241C33.8257 30.4241 34.2273 30.5426 34.564 30.7798C34.8929 31.0208 35.1263 31.3536 35.264 31.7782C35.3596 32.065 35.4074 32.3653 35.4074 32.679C35.4074 32.9888 35.3672 33.2795 35.2869 33.5511C35.1607 33.9987 34.9254 34.3487 34.5812 34.6011C34.2407 34.8574 33.8295 34.9855 33.3476 34.9855ZM33.3476 33.947C33.535 33.947 33.6957 33.8896 33.8295 33.7749C33.9634 33.6601 34.059 33.5014 34.1164 33.2987C34.1585 33.1151 34.1795 32.9142 34.1795 32.6962C34.1795 32.4552 34.1585 32.2525 34.1164 32.088C34.0514 31.8929 33.9538 31.7399 33.8238 31.629C33.6899 31.5219 33.5273 31.4683 33.3361 31.4683C33.1448 31.4683 32.9842 31.5219 32.8541 31.629C32.7241 31.7399 32.6304 31.8929 32.573 32.088C32.5271 32.2219 32.5041 32.4246 32.5041 32.6962C32.5041 32.9563 32.5252 33.1571 32.5672 33.2987C32.6246 33.5014 32.7202 33.6601 32.8541 33.7749C32.988 33.8896 33.1525 33.947 33.3476 33.947ZM38.391 30.4355C38.5976 30.4355 38.762 30.4757 38.8844 30.556C38.9303 30.579 38.9456 30.6211 38.9303 30.6823L38.7525 31.6634C38.7487 31.7323 38.7085 31.7533 38.632 31.7265C38.544 31.6959 38.4446 31.6806 38.3336 31.6806C38.2877 31.6806 38.2246 31.6864 38.1443 31.6978C37.9377 31.717 37.7618 31.7935 37.6164 31.9273C37.4749 32.0612 37.4041 32.241 37.4041 32.4667V34.8134C37.4041 34.844 37.3926 34.8689 37.3697 34.888C37.3506 34.9071 37.3257 34.9167 37.2951 34.9167H36.291C36.2642 34.9167 36.2394 34.9071 36.2164 34.888C36.1973 34.8689 36.1877 34.844 36.1877 34.8134V30.5962C36.1877 30.5694 36.1973 30.5446 36.2164 30.5216C36.2394 30.5025 36.2642 30.4929 36.291 30.4929H37.2951C37.3257 30.4929 37.3506 30.5025 37.3697 30.5216C37.3926 30.5446 37.4041 30.5694 37.4041 30.5962V30.9232C37.4041 30.9385 37.4079 30.95 37.4156 30.9577C37.4309 30.9653 37.4405 30.9615 37.4443 30.9462C37.6814 30.6058 37.997 30.4355 38.391 30.4355ZM44.3869 30.4241C44.8344 30.4241 45.1844 30.5579 45.4369 30.8257C45.6894 31.0973 45.8156 31.4779 45.8156 31.9675V34.8134C45.8156 34.844 45.806 34.8689 45.7869 34.888C45.7678 34.9071 45.7448 34.9167 45.7181 34.9167H44.7082C44.6814 34.9167 44.6566 34.9071 44.6336 34.888C44.6145 34.8689 44.6049 34.844 44.6049 34.8134V32.2314C44.6049 31.9981 44.5457 31.8126 44.4271 31.6749C44.3047 31.5372 44.1421 31.4683 43.9394 31.4683C43.7405 31.4683 43.5779 31.5372 43.4517 31.6749C43.3254 31.8126 43.2623 31.9962 43.2623 32.2257V34.8134C43.2623 34.844 43.2528 34.8689 43.2336 34.888C43.2107 34.9071 43.1858 34.9167 43.159 34.9167H42.1607C42.1301 34.9167 42.1052 34.9071 42.0861 34.888C42.067 34.8689 42.0574 34.844 42.0574 34.8134V32.2314C42.0574 32.0019 41.9943 31.8164 41.8681 31.6749C41.7418 31.5372 41.5773 31.4683 41.3746 31.4683C41.1948 31.4683 41.0418 31.5219 40.9156 31.629C40.7932 31.7399 40.7205 31.8929 40.6976 32.088V34.8134C40.6976 34.844 40.688 34.8689 40.6689 34.888C40.6459 34.9071 40.6211 34.9167 40.5943 34.9167H39.5902C39.5596 34.9167 39.5347 34.9071 39.5156 34.888C39.4965 34.8689 39.4869 34.844 39.4869 34.8134V30.5962C39.4869 30.5694 39.4965 30.5446 39.5156 30.5216C39.5347 30.5025 39.5596 30.4929 39.5902 30.4929H40.5943C40.6211 30.4929 40.6459 30.5025 40.6689 30.5216C40.688 30.5446 40.6976 30.5694 40.6976 30.5962V30.9347C40.6976 30.95 40.7033 30.9615 40.7148 30.9691C40.7262 30.973 40.7377 30.9653 40.7492 30.9462C40.9864 30.5981 41.3517 30.4241 41.8451 30.4241C42.132 30.4241 42.3825 30.4853 42.5967 30.6077C42.811 30.7263 42.9754 30.8984 43.0902 31.1241C43.1055 31.1585 43.1265 31.1585 43.1533 31.1241C43.2757 30.8869 43.4459 30.711 43.664 30.5962C43.8782 30.4814 44.1191 30.4241 44.3869 30.4241ZM50.5607 32.2487C50.5951 32.4667 50.6066 32.7096 50.5951 32.9773C50.5875 33.05 50.5492 33.0864 50.4804 33.0864H47.8238C47.7894 33.0864 47.7779 33.0997 47.7894 33.1265C47.8047 33.2413 47.8353 33.356 47.8812 33.4708C48.0303 33.7921 48.3344 33.9528 48.7935 33.9528C49.1607 33.9489 49.4514 33.7997 49.6656 33.5052C49.6885 33.4708 49.7134 33.4536 49.7402 33.4536C49.7593 33.4536 49.7803 33.465 49.8033 33.488L50.423 34.0962C50.4497 34.1268 50.4631 34.1536 50.4631 34.1765C50.4631 34.188 50.4517 34.211 50.4287 34.2454C50.2413 34.4825 49.9984 34.6642 49.7 34.7905C49.4017 34.9205 49.0746 34.9855 48.7189 34.9855C48.2254 34.9855 47.8085 34.8746 47.4681 34.6528C47.1238 34.4271 46.8771 34.1134 46.7279 33.7118C46.6093 33.4249 46.55 33.05 46.55 32.5872C46.55 32.2697 46.5921 31.9905 46.6763 31.7495C46.8101 31.344 47.0415 31.0208 47.3705 30.7798C47.6995 30.5388 48.0916 30.4183 48.5467 30.4183C49.1205 30.4183 49.5814 30.5847 49.9295 30.9175C50.2776 31.2503 50.488 31.694 50.5607 32.2487ZM48.5525 31.4683C48.1929 31.4683 47.9558 31.6366 47.841 31.9732C47.8181 32.0497 47.797 32.1416 47.7779 32.2487C47.7779 32.2754 47.7932 32.2888 47.8238 32.2888H49.3099C49.3443 32.2888 49.3558 32.2754 49.3443 32.2487C49.3175 32.0842 49.3041 32.0038 49.3041 32.0077C49.2506 31.8355 49.1607 31.7017 49.0344 31.606C48.9044 31.5142 48.7437 31.4683 48.5525 31.4683ZM53.5443 30.4355C53.7508 30.4355 53.9153 30.4757 54.0377 30.556C54.0836 30.579 54.1008 30.6211 54.0894 30.6823L53.9115 31.6634C53.9038 31.7323 53.8618 31.7533 53.7853 31.7265C53.7011 31.6959 53.6017 31.6806 53.4869 31.6806C53.441 31.6806 53.3779 31.6864 53.2976 31.6978C53.091 31.717 52.9151 31.7935 52.7697 31.9273C52.6282 32.0612 52.5574 32.241 52.5574 32.4667V34.8134C52.5574 34.844 52.5478 34.8689 52.5287 34.888C52.5058 34.9071 52.4809 34.9167 52.4541 34.9167H51.4443C51.4175 34.9167 51.3946 34.9071 51.3754 34.888C51.3525 34.8689 51.341 34.844 51.341 34.8134V30.5962C51.341 30.5694 51.3525 30.5446 51.3754 30.5216C51.3946 30.5025 51.4175 30.4929 51.4443 30.4929H52.4541C52.4809 30.4929 52.5058 30.5025 52.5287 30.5216C52.5478 30.5446 52.5574 30.5694 52.5574 30.5962V30.9232C52.5574 30.9385 52.5631 30.95 52.5746 30.9577C52.5861 30.9653 52.5956 30.9615 52.6033 30.9462C52.8366 30.6058 53.1503 30.4355 53.5443 30.4355ZM29.8705 20.3888C29.8705 20.362 29.8801 20.3372 29.8992 20.3142C29.9183 20.2951 29.9413 20.2855 29.9681 20.2855H30.9779C31.0047 20.2855 31.0295 20.2951 31.0525 20.3142C31.0716 20.3372 31.0812 20.362 31.0812 20.3888V26.2069C31.0812 26.2375 31.0716 26.2623 31.0525 26.2814C31.0295 26.3006 31.0047 26.3101 30.9779 26.3101H29.9681C29.9413 26.3101 29.9183 26.3006 29.8992 26.2814C29.8801 26.2623 29.8705 26.2375 29.8705 26.2069V23.8314C29.8705 23.8047 29.8552 23.7913 29.8246 23.7913H27.9197C27.8929 23.7913 27.8795 23.8047 27.8795 23.8314V26.2069C27.8795 26.2375 27.87 26.2623 27.8508 26.2814C27.8279 26.3006 27.803 26.3101 27.7763 26.3101H26.7664C26.7396 26.3101 26.7167 26.3006 26.6976 26.2814C26.6746 26.2623 26.6631 26.2375 26.6631 26.2069V20.3888C26.6631 20.362 26.6746 20.3372 26.6976 20.3142C26.7167 20.2951 26.7396 20.2855 26.7664 20.2855H27.7763C27.803 20.2855 27.8279 20.2951 27.8508 20.3142C27.87 20.3372 27.8795 20.362 27.8795 20.3888V22.7011C27.8795 22.7317 27.8929 22.747 27.9197 22.747H29.8246C29.8552 22.747 29.8705 22.7317 29.8705 22.7011V20.3888ZM32.6476 21.3872C32.4525 21.3872 32.2899 21.3222 32.1599 21.1921C32.0298 21.0659 31.9648 20.9052 31.9648 20.7101C31.9648 20.5074 32.0279 20.3429 32.1541 20.2167C32.2803 20.0905 32.4448 20.0273 32.6476 20.0273C32.8503 20.0273 33.0148 20.0905 33.141 20.2167C33.2672 20.3429 33.3303 20.5074 33.3303 20.7101C33.3303 20.9052 33.2653 21.0659 33.1353 21.1921C33.0052 21.3222 32.8426 21.3872 32.6476 21.3872ZM32.1312 26.3101C32.1044 26.3101 32.0795 26.3006 32.0566 26.2814C32.0375 26.2623 32.0279 26.2375 32.0279 26.2069V21.9839C32.0279 21.9533 32.0375 21.9284 32.0566 21.9093C32.0795 21.8902 32.1044 21.8806 32.1312 21.8806H33.141C33.1678 21.8806 33.1907 21.8902 33.2099 21.9093C33.2328 21.9284 33.2443 21.9533 33.2443 21.9839V26.2069C33.2443 26.2375 33.2328 26.2623 33.2099 26.2814C33.1907 26.3006 33.1678 26.3101 33.141 26.3101H32.1312ZM36.8877 21.9896C36.8877 21.9629 36.8992 21.938 36.9222 21.915C36.9413 21.8959 36.9642 21.8864 36.991 21.8864H38.0008C38.0276 21.8864 38.0525 21.8959 38.0754 21.915C38.0946 21.938 38.1041 21.9629 38.1041 21.9896V25.9142C38.1041 26.664 37.888 27.1995 37.4558 27.5208C37.0235 27.8459 36.465 28.0085 35.7803 28.0085C35.5776 28.0085 35.3538 27.9932 35.109 27.9626C35.0517 27.9549 35.023 27.9186 35.023 27.8536L35.0574 26.9642C35.0574 26.8877 35.0976 26.8552 35.1779 26.8667C35.3844 26.9011 35.5738 26.9183 35.7459 26.9183C36.1131 26.9183 36.3962 26.8399 36.5951 26.6831C36.7902 26.5186 36.8877 26.2604 36.8877 25.9085C36.8877 25.8894 36.882 25.8779 36.8705 25.8741C36.859 25.8702 36.8476 25.876 36.8361 25.8913C36.6181 26.1246 36.3006 26.2413 35.8836 26.2413C35.5088 26.2413 35.1664 26.1514 34.8566 25.9716C34.5429 25.7918 34.3191 25.5011 34.1853 25.0995C34.1011 24.8355 34.059 24.4932 34.059 24.0724C34.059 23.6249 34.1107 23.2615 34.214 22.9823C34.3325 22.6304 34.5353 22.3492 34.8222 22.1388C35.109 21.9246 35.4437 21.8175 35.8263 21.8175C36.2661 21.8175 36.6028 21.9495 36.8361 22.2134C36.8476 22.2249 36.859 22.2287 36.8705 22.2249C36.882 22.2211 36.8877 22.2115 36.8877 22.1962V21.9896ZM36.8189 24.7667C36.8648 24.5984 36.8877 24.3631 36.8877 24.061C36.8877 23.885 36.882 23.7492 36.8705 23.6536C36.859 23.5541 36.8399 23.4604 36.8131 23.3724C36.7596 23.2194 36.6735 23.0951 36.5549 22.9995C36.4364 22.9077 36.2872 22.8618 36.1074 22.8618C35.9353 22.8618 35.7899 22.9077 35.6713 22.9995C35.5489 23.0951 35.459 23.2194 35.4017 23.3724C35.3213 23.5446 35.2812 23.7779 35.2812 24.0724C35.2812 24.3937 35.3156 24.6232 35.3844 24.761C35.4342 24.9178 35.5241 25.0421 35.6541 25.1339C35.7842 25.2295 35.9372 25.2773 36.1131 25.2773C36.2967 25.2773 36.4497 25.2295 36.5722 25.1339C36.6907 25.0421 36.773 24.9197 36.8189 24.7667ZM41.2828 21.8175C41.7418 21.8175 42.111 21.959 42.3902 22.2421C42.6694 22.5213 42.809 22.9019 42.809 23.3839V26.2069C42.809 26.2375 42.7995 26.2623 42.7803 26.2814C42.7612 26.3006 42.7383 26.3101 42.7115 26.3101H41.7017C41.6749 26.3101 41.65 26.3006 41.6271 26.2814C41.6079 26.2623 41.5984 26.2375 41.5984 26.2069V23.6306C41.5984 23.4049 41.5334 23.2194 41.4033 23.0741C41.2771 22.9325 41.1069 22.8618 40.8926 22.8618C40.6823 22.8618 40.512 22.9325 40.382 23.0741C40.2519 23.2194 40.1869 23.4049 40.1869 23.6306V26.2069C40.1869 26.2375 40.1773 26.2623 40.1582 26.2814C40.1391 26.3006 40.1142 26.3101 40.0836 26.3101H39.0795C39.0489 26.3101 39.0241 26.3006 39.0049 26.2814C38.9858 26.2623 38.9763 26.2375 38.9763 26.2069V20.3888C38.9763 20.362 38.9858 20.3372 39.0049 20.3142C39.0241 20.2951 39.0489 20.2855 39.0795 20.2855H40.0836C40.1142 20.2855 40.1391 20.2951 40.1582 20.3142C40.1773 20.3372 40.1869 20.362 40.1869 20.3888V22.2937C40.1869 22.309 40.1926 22.3205 40.2041 22.3282C40.2156 22.332 40.2232 22.3282 40.2271 22.3167C40.4642 21.9839 40.8161 21.8175 41.2828 21.8175Z" fill="#252530"/>
<path d="M25.9345 43.7527C25.8925 43.7527 25.8657 43.7336 25.8542 43.6953L24.8099 39.8109L24.8042 39.788C24.8042 39.7535 24.8252 39.7363 24.8673 39.7363H25.4296C25.4717 39.7363 25.4985 39.7555 25.5099 39.7937L26.164 42.4101C26.1679 42.4216 26.1736 42.4273 26.1812 42.4273C26.1889 42.4273 26.1946 42.4216 26.1985 42.4101L26.8239 39.7937C26.8353 39.7555 26.8602 39.7363 26.8985 39.7363H27.4493C27.4914 39.7363 27.5181 39.7555 27.5296 39.7937L28.1952 42.4158C28.199 42.4273 28.2047 42.433 28.2124 42.433C28.22 42.433 28.2258 42.4273 28.2296 42.4158L28.8722 39.7937C28.8837 39.7555 28.9105 39.7363 28.9526 39.7363H29.4862C29.5397 39.7363 29.5608 39.7612 29.5493 39.8109L28.5567 43.6953C28.5452 43.7336 28.5184 43.7527 28.4763 43.7527H27.9427C27.9006 43.7527 27.8739 43.7336 27.8624 43.6953L27.1911 40.9585C27.1873 40.947 27.1815 40.9393 27.1739 40.9355C27.1662 40.9355 27.1605 40.9432 27.1567 40.9585L26.514 43.6953C26.5026 43.7336 26.4777 43.7527 26.4394 43.7527H25.9345ZM30.1862 43.7527C30.167 43.7527 30.1498 43.7451 30.1345 43.7298C30.1231 43.7183 30.1173 43.703 30.1173 43.6839V39.8052C30.1173 39.7861 30.1231 39.7708 30.1345 39.7593C30.1498 39.744 30.167 39.7363 30.1862 39.7363H30.714C30.7332 39.7363 30.7485 39.744 30.7599 39.7593C30.7752 39.7708 30.7829 39.7861 30.7829 39.8052V43.6839C30.7829 43.703 30.7752 43.7183 30.7599 43.7298C30.7485 43.7451 30.7332 43.7527 30.714 43.7527H30.1862ZM33.9558 39.8052C33.9558 39.7861 33.9616 39.7708 33.9731 39.7593C33.9884 39.744 34.0056 39.7363 34.0247 39.7363H34.5526C34.5717 39.7363 34.587 39.744 34.5985 39.7593C34.6138 39.7708 34.6214 39.7861 34.6214 39.8052V43.6839C34.6214 43.703 34.6138 43.7183 34.5985 43.7298C34.587 43.7451 34.5717 43.7527 34.5526 43.7527H34.0419C34.0037 43.7527 33.9769 43.7374 33.9616 43.7068L32.3091 40.9986C32.3015 40.9871 32.2938 40.9814 32.2862 40.9814C32.2785 40.9852 32.2747 40.9948 32.2747 41.0101L32.2862 43.6839C32.2862 43.703 32.2785 43.7183 32.2632 43.7298C32.2517 43.7451 32.2364 43.7527 32.2173 43.7527H31.6894C31.6703 43.7527 31.6531 43.7451 31.6378 43.7298C31.6263 43.7183 31.6206 43.703 31.6206 43.6839V39.8052C31.6206 39.7861 31.6263 39.7708 31.6378 39.7593C31.6531 39.744 31.6703 39.7363 31.6894 39.7363H32.2001C32.2384 39.7363 32.2651 39.7516 32.2804 39.7822L33.9272 42.4904C33.9348 42.5019 33.9424 42.5057 33.9501 42.5019C33.9578 42.5019 33.9616 42.4943 33.9616 42.479L33.9558 39.8052ZM38.0985 39.7363C38.1176 39.7363 38.1329 39.744 38.1444 39.7593C38.1597 39.7708 38.1673 39.7861 38.1673 39.8052V40.247C38.1673 40.2661 38.1597 40.2814 38.1444 40.2929C38.1329 40.3082 38.1176 40.3158 38.0985 40.3158H37.0427C37.0236 40.3158 37.014 40.3254 37.014 40.3445V43.6839C37.014 43.703 37.0083 43.7183 36.9968 43.7298C36.9815 43.7451 36.9643 43.7527 36.9452 43.7527H36.4173C36.3982 43.7527 36.3829 43.7451 36.3714 43.7298C36.3561 43.7183 36.3485 43.703 36.3485 43.6839V40.3445C36.3485 40.3254 36.3389 40.3158 36.3198 40.3158H35.3042C35.2851 40.3158 35.2679 40.3082 35.2526 40.2929C35.2411 40.2814 35.2353 40.2661 35.2353 40.247V39.8052C35.2353 39.7861 35.2411 39.7708 35.2526 39.7593C35.2679 39.744 35.2851 39.7363 35.3042 39.7363H38.0985ZM41.5009 40.2412C41.5009 40.2604 41.4933 40.2757 41.478 40.2871C41.4665 40.3024 41.4512 40.3101 41.4321 40.3101H39.4755C39.4564 40.3101 39.4468 40.3197 39.4468 40.3388V41.4117C39.4468 41.4309 39.4564 41.4404 39.4755 41.4404H40.7894C40.8086 41.4404 40.8258 41.4462 40.8411 41.4576C40.8526 41.4729 40.8583 41.4902 40.8583 41.5093V41.9453C40.8583 41.9645 40.8526 41.9817 40.8411 41.997C40.8258 42.0085 40.8086 42.0142 40.7894 42.0142H39.4755C39.4564 42.0142 39.4468 42.0238 39.4468 42.0429V43.1503C39.4468 43.1694 39.4564 43.179 39.4755 43.179H41.4321C41.4512 43.179 41.4665 43.1866 41.478 43.2019C41.4933 43.2134 41.5009 43.2287 41.5009 43.2478V43.6839C41.5009 43.703 41.4933 43.7183 41.478 43.7298C41.4665 43.7451 41.4512 43.7527 41.4321 43.7527H38.8501C38.831 43.7527 38.8138 43.7451 38.7985 43.7298C38.787 43.7183 38.7812 43.703 38.7812 43.6839V39.8052C38.7812 39.7861 38.787 39.7708 38.7985 39.7593C38.8138 39.744 38.831 39.7363 38.8501 39.7363H41.4321C41.4512 39.7363 41.4665 39.744 41.478 39.7593C41.4933 39.7708 41.5009 39.7861 41.5009 39.8052V40.2412ZM44.4329 43.7527C44.3946 43.7527 44.3679 43.7355 44.3526 43.7011L43.5952 42.0486C43.5875 42.0333 43.5761 42.0257 43.5608 42.0257H42.8722C42.8531 42.0257 42.8435 42.0352 42.8435 42.0544V43.6839C42.8435 43.703 42.8359 43.7183 42.8206 43.7298C42.8091 43.7451 42.7938 43.7527 42.7747 43.7527H42.2468C42.2277 43.7527 42.2105 43.7451 42.1952 43.7298C42.1837 43.7183 42.178 43.703 42.178 43.6839V39.8052C42.178 39.7861 42.1837 39.7708 42.1952 39.7593C42.2105 39.744 42.2277 39.7363 42.2468 39.7363H43.8247C44.058 39.7363 44.2646 39.7841 44.4444 39.8798C44.6241 39.9792 44.7638 40.1169 44.8632 40.2929C44.9627 40.4727 45.0124 40.6773 45.0124 40.9068C45.0124 41.1708 44.9435 41.3945 44.8058 41.5781C44.672 41.7656 44.4845 41.8956 44.2435 41.9683C44.2359 41.9683 44.2302 41.9721 44.2263 41.9798C44.2225 41.9874 44.2225 41.9951 44.2263 42.0027L45.0353 43.6724C45.043 43.6877 45.0468 43.6992 45.0468 43.7068C45.0468 43.7374 45.0258 43.7527 44.9837 43.7527H44.4329ZM42.8722 40.3101C42.8531 40.3101 42.8435 40.3197 42.8435 40.3388V41.4806C42.8435 41.4997 42.8531 41.5093 42.8722 41.5093H43.7329C43.9165 41.5093 44.0657 41.4538 44.1804 41.3429C44.2914 41.2358 44.3468 41.0923 44.3468 40.9126C44.3468 40.7328 44.2914 40.5874 44.1804 40.4765C44.0657 40.3656 43.9165 40.3101 43.7329 40.3101H42.8722Z" fill="white"/>
<path d="M27.5582 54.1152C27.5467 54.1267 27.5429 54.1382 27.5467 54.1496C27.5544 54.1611 27.5659 54.1668 27.5812 54.1668H29.8361C29.8629 54.1668 29.8858 54.1764 29.9049 54.1955C29.9279 54.2147 29.9394 54.2376 29.9394 54.2644V55.0734C29.9394 55.1002 29.9279 55.1231 29.9049 55.1423C29.8858 55.1614 29.8629 55.1709 29.8361 55.1709H26.0951C26.0645 55.1709 26.0396 55.1614 26.0205 55.1423C26.0014 55.1231 25.9918 55.1002 25.9918 55.0734V54.3046C25.9918 54.2548 26.009 54.2127 26.0435 54.1783C26.315 53.9144 26.5924 53.6256 26.8754 53.3119C27.1585 52.9983 27.3364 52.8032 27.409 52.7267C27.562 52.5431 27.7189 52.3671 27.8795 52.1988C28.3844 51.6403 28.6369 51.2253 28.6369 50.9537C28.6369 50.7586 28.5681 50.598 28.4303 50.4718C28.2926 50.3494 28.1129 50.2882 27.891 50.2882C27.6691 50.2882 27.4894 50.3494 27.3517 50.4718C27.2101 50.598 27.1394 50.7644 27.1394 50.9709V51.1775C27.1394 51.2043 27.1298 51.2272 27.1107 51.2464C27.0916 51.2655 27.0686 51.275 27.0418 51.275H26.0607C26.0339 51.275 26.0109 51.2655 25.9918 51.2464C25.9689 51.2272 25.9574 51.2043 25.9574 51.1775V50.7873C25.9765 50.489 26.0722 50.2231 26.2443 49.9898C26.4164 49.7603 26.644 49.5843 26.9271 49.4619C27.214 49.3395 27.5353 49.2783 27.891 49.2783C28.285 49.2783 28.6273 49.3529 28.9181 49.5021C29.2088 49.6474 29.4325 49.8444 29.5894 50.0931C29.75 50.3455 29.8303 50.6229 29.8303 50.925C29.8303 51.1584 29.7711 51.3974 29.6525 51.6423C29.5377 51.8871 29.3637 52.151 29.1303 52.4341C28.9582 52.6483 28.7727 52.8625 28.5738 53.0767C28.3749 53.2871 28.0784 53.5912 27.6844 53.989L27.5582 54.1152ZM32.6418 55.2627C32.0298 55.2627 31.5478 55.0925 31.1959 54.7521C30.8402 54.4117 30.6623 53.9469 30.6623 53.3578V51.1603C30.6623 50.5827 30.8402 50.1256 31.1959 49.789C31.5478 49.4485 32.0298 49.2783 32.6418 49.2783C33.25 49.2783 33.7339 49.4485 34.0935 49.789C34.4492 50.1256 34.6271 50.5827 34.6271 51.1603V53.3578C34.6271 53.9469 34.4492 54.4117 34.0935 54.7521C33.7339 55.0925 33.25 55.2627 32.6418 55.2627ZM32.6418 54.2586C32.8905 54.2586 33.0875 54.1821 33.2328 54.0291C33.382 53.8761 33.4566 53.6715 33.4566 53.4152V51.1259C33.4566 50.8734 33.382 50.6707 33.2328 50.5177C33.0875 50.3647 32.8905 50.2882 32.6418 50.2882C32.397 50.2882 32.2019 50.3647 32.0566 50.5177C31.9074 50.6707 31.8328 50.8734 31.8328 51.1259V53.4152C31.8328 53.6715 31.9074 53.8761 32.0566 54.0291C32.2019 54.1821 32.397 54.2586 32.6418 54.2586ZM36.9566 54.1152C36.9451 54.1267 36.9432 54.1382 36.9508 54.1496C36.9547 54.1611 36.9661 54.1668 36.9853 54.1668H39.2402C39.267 54.1668 39.2899 54.1764 39.309 54.1955C39.3282 54.2147 39.3377 54.2376 39.3377 54.2644V55.0734C39.3377 55.1002 39.3282 55.1231 39.309 55.1423C39.2899 55.1614 39.267 55.1709 39.2402 55.1709H35.4935C35.4667 55.1709 35.4437 55.1614 35.4246 55.1423C35.4055 55.1231 35.3959 55.1002 35.3959 55.0734V54.3046C35.3959 54.2548 35.4112 54.2127 35.4418 54.1783C35.7172 53.9144 35.9946 53.6256 36.2738 53.3119C36.5569 52.9983 36.7347 52.8032 36.8074 52.7267C36.9642 52.5431 37.123 52.3671 37.2836 52.1988C37.7885 51.6403 38.041 51.2253 38.041 50.9537C38.041 50.7586 37.9722 50.598 37.8344 50.4718C37.6929 50.3494 37.5112 50.2882 37.2894 50.2882C37.0675 50.2882 36.8877 50.3494 36.75 50.4718C36.6123 50.598 36.5435 50.7644 36.5435 50.9709V51.1775C36.5435 51.2043 36.5339 51.2272 36.5148 51.2464C36.4956 51.2655 36.4708 51.275 36.4402 51.275H35.459C35.4323 51.275 35.4093 51.2655 35.3902 51.2464C35.3711 51.2272 35.3615 51.2043 35.3615 51.1775V50.7873C35.3768 50.489 35.4705 50.2231 35.6426 49.9898C35.8148 49.7603 36.0443 49.5843 36.3312 49.4619C36.6181 49.3395 36.9375 49.2783 37.2894 49.2783C37.6834 49.2783 38.0257 49.3529 38.3164 49.5021C38.6109 49.6474 38.8366 49.8444 38.9935 50.0931C39.1503 50.3455 39.2287 50.6229 39.2287 50.925C39.2287 51.1584 39.1713 51.3974 39.0566 51.6423C38.938 51.8871 38.762 52.151 38.5287 52.4341C38.3566 52.6483 38.1711 52.8625 37.9722 53.0767C37.7732 53.2871 37.4768 53.5912 37.0828 53.989L36.9566 54.1152ZM43.532 52.3939C43.6429 52.6464 43.6984 52.939 43.6984 53.2718C43.6984 53.5739 43.6487 53.8513 43.5492 54.1037C43.4153 54.4595 43.1916 54.7368 42.8779 54.9357C42.5642 55.1384 42.1932 55.2398 41.7648 55.2398C41.344 55.2398 40.9749 55.1346 40.6574 54.9242C40.3399 54.71 40.1104 54.4231 39.9689 54.0636C39.8924 53.8494 39.8484 53.616 39.8369 53.3636C39.8369 53.2985 39.8694 53.266 39.9344 53.266H40.9213C40.9864 53.266 41.0189 53.2985 41.0189 53.3636C41.0418 53.5472 41.0724 53.683 41.1107 53.7709C41.1604 53.9163 41.2426 54.0291 41.3574 54.1095C41.4683 54.1898 41.6022 54.23 41.759 54.23C42.0689 54.23 42.2831 54.0942 42.4017 53.8226C42.4782 53.6581 42.5164 53.4649 42.5164 53.2431C42.5164 52.9791 42.4743 52.7649 42.3902 52.6005C42.264 52.3403 42.0517 52.2103 41.7533 52.2103C41.6921 52.2103 41.6271 52.2275 41.5582 52.2619C41.4932 52.3002 41.4129 52.3518 41.3172 52.4168C41.2943 52.4321 41.2732 52.4398 41.2541 52.4398C41.2197 52.4398 41.1948 52.4245 41.1795 52.3939L40.6861 51.6996C40.6746 51.6843 40.6689 51.6652 40.6689 51.6423C40.6689 51.6078 40.6803 51.5811 40.7033 51.5619L42.023 50.4029C42.0344 50.3914 42.0402 50.38 42.0402 50.3685C42.0364 50.357 42.0268 50.3513 42.0115 50.3513H40.0549C40.0282 50.3513 40.0033 50.3417 39.9803 50.3226C39.9612 50.3035 39.9517 50.2805 39.9517 50.2537V49.4447C39.9517 49.4179 39.9612 49.395 39.9803 49.3759C40.0033 49.3567 40.0282 49.3472 40.0549 49.3472H43.5205C43.5511 49.3472 43.576 49.3567 43.5951 49.3759C43.6142 49.395 43.6238 49.4179 43.6238 49.4447V50.3627C43.6238 50.4048 43.6047 50.4469 43.5664 50.489L42.4762 51.4873C42.4648 51.4988 42.4609 51.5084 42.4648 51.516C42.4648 51.5275 42.4763 51.5332 42.4992 51.5332C42.9812 51.6289 43.3254 51.9158 43.532 52.3939Z" fill="#252530"/>
</g>
</g>
<defs>
<clipPath id="clip0_3368_2281">
<rect width="70" height="70" fill="white" transform="translate(0 0.490234)"/>
</clipPath>
<clipPath id="clip1_3368_2281">
<rect width="53.9344" height="70" fill="white" transform="translate(8.03284 0.490234)"/>
</clipPath>
</defs>
</svg>
