<svg width="10" height="12" viewBox="0 0 10 12" fill="none" xmlns="http://www.w3.org/2000/svg">
<path d="M8.54093 5.07936H8.04099V3.53146C8.04099 1.72988 6.62036 0.263672 4.87476 0.263672C3.12917 0.263672 1.70853 1.72988 1.70853 3.53146V5.07936H1.2086C0.656595 5.07936 0.20874 5.54159 0.20874 6.1113V10.239C0.20874 10.8087 0.656595 11.271 1.2086 11.271H8.54093C9.09293 11.271 9.54079 10.8087 9.54079 10.239V6.1113C9.54079 5.54159 9.09293 5.07936 8.54093 5.07936ZM6.37456 5.07936H3.37497V3.53146C3.37497 2.67797 4.0478 1.98356 4.87476 1.98356C5.70173 1.98356 6.37456 2.67797 6.37456 3.53146V5.07936Z" fill="white"/>
</svg>
