<svg width="49" height="49" viewBox="0 0 49 49" fill="none" xmlns="http://www.w3.org/2000/svg">
<path fill-rule="evenodd" clip-rule="evenodd" d="M17.2058 6.52364C19.0925 6.43678 19.694 6.41748 24.5 6.41748C29.306 6.41748 29.9076 6.43839 31.7927 6.52364C33.6778 6.60888 34.9645 6.90966 36.0904 7.34555C37.2694 7.79108 38.339 8.48753 39.2236 9.38826C40.1244 10.2713 40.8192 11.3393 41.2631 12.5199C41.7006 13.6458 41.9998 14.9325 42.0866 16.8144C42.1735 18.7043 42.1928 19.3059 42.1928 24.1103C42.1928 28.9163 42.1719 29.5178 42.0866 31.4045C42.0014 33.2864 41.7006 34.5731 41.2631 35.699C40.8192 36.8798 40.1232 37.9495 39.2236 38.8339C38.339 39.7346 37.2694 40.4294 36.0904 40.8734C34.9645 41.3109 33.6778 41.61 31.7959 41.6969C29.9076 41.7837 29.306 41.803 24.5 41.803C19.694 41.803 19.0925 41.7821 17.2058 41.6969C15.3239 41.6116 14.0372 41.3109 12.9113 40.8734C11.7305 40.4294 10.6608 39.7334 9.77642 38.8339C8.87631 37.9503 8.17975 36.881 7.73532 35.7006C7.29943 34.5747 7.00026 33.288 6.91341 31.4061C6.82655 29.5162 6.80725 28.9146 6.80725 24.1103C6.80725 19.3043 6.82816 18.7027 6.91341 16.8176C6.99865 14.9325 7.29943 13.6458 7.73532 12.5199C8.18041 11.3394 8.8775 10.2702 9.77803 9.38665C10.6611 8.48673 11.7298 7.79019 12.9097 7.34555C14.0356 6.90966 15.3239 6.61049 17.2058 6.52364ZM31.6495 9.70834C29.7837 9.62309 29.224 9.6054 24.5 9.6054C19.7761 9.6054 19.2163 9.62309 17.3505 9.70834C15.6247 9.78715 14.6886 10.0751 14.0645 10.3179C13.2394 10.6396 12.6491 11.0208 12.0298 11.6401C11.4428 12.2111 10.9911 12.9064 10.7077 13.6747C10.4648 14.2988 10.1769 15.2349 10.0981 16.9608C10.0129 18.8265 9.99517 19.3863 9.99517 24.1103C9.99517 28.8342 10.0129 29.394 10.0981 31.2597C10.1769 32.9856 10.4648 33.9217 10.7077 34.5458C10.9908 35.313 11.4428 36.0095 12.0298 36.5804C12.6008 37.1675 13.2973 37.6195 14.0645 37.9026C14.6886 38.1455 15.6247 38.4334 17.3505 38.5122C19.2163 38.5974 19.7744 38.6151 24.5 38.6151C29.2256 38.6151 29.7837 38.5974 31.6495 38.5122C33.3754 38.4334 34.3115 38.1455 34.9355 37.9026C35.7607 37.5809 36.351 37.1997 36.9702 36.5804C37.5573 36.0095 38.0093 35.313 38.2924 34.5458C38.5352 33.9217 38.8231 32.9856 38.9019 31.2597C38.9872 29.394 39.0049 28.8342 39.0049 24.1103C39.0049 19.3863 38.9872 18.8265 38.9019 16.9608C38.8231 15.2349 38.5352 14.2988 38.2924 13.6747C37.9707 12.8496 37.5895 12.2593 36.9702 11.6401C36.3991 11.0531 35.7039 10.6014 34.9355 10.3179C34.3115 10.0751 33.3754 9.78715 31.6495 9.70834ZM22.2402 29.5645C23.5022 30.0898 24.9076 30.1607 26.2161 29.7651C27.5247 29.3694 28.6552 28.5317 29.4148 27.3951C30.1743 26.2584 30.5157 24.8934 30.3805 23.533C30.2454 22.1726 29.6422 20.9014 28.6739 19.9364C28.0567 19.3195 27.3103 18.8472 26.4886 18.5534C25.6669 18.2595 24.7902 18.1516 23.9218 18.2372C23.0533 18.3229 22.2147 18.6 21.4662 19.0487C20.7177 19.4974 20.078 20.1065 19.5932 20.832C19.1083 21.5576 18.7904 22.3817 18.6622 23.2449C18.5341 24.1081 18.5989 24.9889 18.8521 25.8241C19.1052 26.6592 19.5404 27.4278 20.1262 28.0746C20.7121 28.7214 21.4341 29.2302 22.2402 29.5645ZM18.0695 17.6797C18.914 16.8353 19.9165 16.1654 21.0199 15.7084C22.1232 15.2514 23.3058 15.0161 24.5 15.0161C25.6943 15.0161 26.8768 15.2514 27.9802 15.7084C29.0835 16.1654 30.0861 16.8353 30.9305 17.6797C31.775 18.5242 32.4449 19.5267 32.9019 20.6301C33.3589 21.7334 33.5942 22.916 33.5942 24.1103C33.5942 25.3045 33.3589 26.4871 32.9019 27.5904C32.4449 28.6938 31.775 29.6963 30.9305 30.5408C29.2251 32.2463 26.9119 33.2044 24.5 33.2044C22.0881 33.2044 19.775 32.2463 18.0695 30.5408C16.364 28.8353 15.4059 26.5222 15.4059 24.1103C15.4059 21.6983 16.364 19.3852 18.0695 17.6797ZM35.6111 16.3705C35.8204 16.1731 35.9879 15.9357 36.1038 15.6724C36.2196 15.4091 36.2815 15.1252 36.2857 14.8375C36.2899 14.5499 36.2363 14.2643 36.1282 13.9977C36.02 13.7311 35.8595 13.489 35.6561 13.2856C35.4526 13.0821 35.2105 12.9216 34.9439 12.8134C34.6773 12.7053 34.3918 12.6517 34.1041 12.6559C33.8164 12.6601 33.5326 12.722 33.2693 12.8379C33.0059 12.9537 32.7686 13.1213 32.5711 13.3305C32.1872 13.7375 31.977 14.2781 31.9852 14.8375C31.9934 15.3969 32.2192 15.9312 32.6148 16.3268C33.0104 16.7224 33.5447 16.9483 34.1041 16.9564C34.6635 16.9646 35.2041 16.7544 35.6111 16.3705Z" fill="white"/>
</svg>
