<svg width="49" height="49" viewBox="0 0 49 49" fill="none" xmlns="http://www.w3.org/2000/svg">
<path d="M41.5375 15.9716C41.3362 15.2533 40.9439 14.6031 40.4026 14.0899C39.8459 13.561 39.1636 13.1826 38.4201 12.9905C35.6376 12.2571 24.4897 12.2571 24.4897 12.2571C19.8422 12.2042 15.1959 12.4368 10.577 12.9535C9.83351 13.1597 9.15251 13.5466 8.59457 14.0795C8.04637 14.607 7.64928 15.2574 7.44185 15.9701C6.94357 18.6545 6.70146 21.3801 6.71881 24.1103C6.70103 26.838 6.94254 29.5627 7.44185 32.2504C7.64484 32.9601 8.04044 33.6076 8.59013 34.1306C9.13982 34.6537 9.82434 35.0315 10.577 35.2315C13.3966 35.9634 24.4897 35.9634 24.4897 35.9634C29.143 36.0164 33.7952 35.7838 38.4201 35.2671C39.1636 35.075 39.8459 34.6966 40.4026 34.1677C40.9438 33.6546 41.3355 33.0043 41.536 32.286C42.0473 29.6027 42.2959 26.8759 42.2783 24.1444C42.3168 21.4012 42.0685 18.6616 41.5375 15.9701V15.9716ZM20.9456 29.1834V19.0386L30.2207 24.1118L20.9456 29.1834Z" fill="white"/>
</svg>
