<svg width="185" height="185" viewBox="0 0 185 185" fill="none" xmlns="http://www.w3.org/2000/svg">
<g clip-path="url(#clip0_505_202)">
<g clip-path="url(#clip1_505_202)">
<path d="M38.608 99.2717L28.1915 110.648H9.0251L19.3379 99.2717H38.608ZM72.8366 81.1979C79.8595 81.1979 82.2845 85.6533 82.4591 89.0671H76.3286C76.1928 87.6013 75.0677 86.2705 72.7977 86.2705C70.7414 86.2705 69.5774 87.2541 69.5774 88.5464C69.5774 92.4617 82.556 88.5464 82.556 98.1128C82.556 102.298 78.967 105.596 72.6231 105.596C65.2511 105.577 62.7484 101.835 62.4381 97.4763H68.8789C68.9758 99.0385 70.1399 100.505 72.7783 100.505C75.2034 100.505 76.445 99.6558 76.445 98.3635C76.445 94.4483 63.4275 98.1322 63.4275 88.8936C63.4275 84.6696 67.0553 81.1979 72.8366 81.1979ZM155.831 81.1979C163.125 81.1979 166.579 86.3091 167.025 90.2822H160.487C160.002 88.2764 158.12 86.8105 155.792 86.8105C152.397 86.8105 150.418 89.4722 150.418 93.3874C150.418 97.3028 152.397 99.9645 155.792 99.9645C158.12 99.9645 160.002 98.4985 160.487 96.4927H167.025C166.579 100.447 163.125 105.577 155.831 105.577C149.021 105.577 144.055 100.331 144.055 93.3874C144.055 86.4441 149.021 81.1979 155.831 81.1979ZM106.244 81.1786C113.189 81.1786 117.884 86.4248 117.884 93.3295C117.884 94.3517 117.787 95.2004 117.787 95.2004H100.773C101.219 98.4021 103.276 100.138 106.457 100.138C108.378 100.138 110.221 99.2893 110.978 97.5921H117.38C115.983 102.317 111.695 105.558 106.283 105.558C99.3373 105.558 94.468 100.485 94.468 93.3295C94.468 86.4248 99.2985 81.1786 106.244 81.1786ZM90.8788 76.299V81.7187H95.5543V86.8684H90.8788V105.037H84.5156V76.299H90.8788ZM133.075 81.1979C138.72 81.1979 141.708 84.9397 141.708 90.4944V105.037H135.344V91.1887C135.344 88.4692 134.18 86.5984 131.367 86.5984C128.283 86.5984 126.575 88.5657 126.575 91.6709V105.018H120.212V81.7187H126.09V84.5732C127.157 82.5673 129.582 81.1979 133.075 81.1979ZM175.755 81.7187V105.037H169.391V81.7187H175.755ZM185.513 73.7723V105.037H179.15V73.7723H185.513ZM50.8998 85.7891L40.4888 97.165H0.900513L11.3116 85.7891H50.8998ZM106.166 86.2705C103.276 86.2705 101.394 88.0063 100.851 90.668H111.501C111.055 88.0449 109.134 86.2705 106.166 86.2705ZM42.7747 72.3065L32.4062 83.6825H13.1919L23.5758 72.3065H42.7747ZM172.554 72.3065C174.785 72.3065 176.395 73.9074 176.395 76.1254C176.395 78.3434 174.785 79.9057 172.554 79.9057C170.342 79.9057 168.712 78.3627 168.712 76.1254C168.712 73.9074 170.323 72.3065 172.554 72.3065Z" fill="#33FFB5"/>
</g>
</g>
<defs>
<clipPath id="clip0_505_202">
<rect width="184.612" height="184.612" fill="white" transform="translate(0.387573)"/>
</clipPath>
<clipPath id="clip1_505_202">
<rect width="184.612" height="38.4609" fill="white" transform="translate(0.900513 72.3065)"/>
</clipPath>
</defs>
</svg>
